<svg width="406" height="224" viewBox="0 0 406 224" fill="none" xmlns="http://www.w3.org/2000/svg">
<path d="M119.554 33.576V25.4624H157.781V33.576H143.531V72.0078H133.804V33.576H119.554ZM174.741 72.6896C171.151 72.6896 168.06 71.9624 165.469 70.5078C162.893 69.0381 160.908 66.9624 159.514 64.2805C158.12 61.5836 157.423 58.3942 157.423 54.7124C157.423 51.1214 158.12 47.9699 159.514 45.2578C160.908 42.5457 162.87 40.4321 165.401 38.9169C167.946 37.4018 170.931 36.6442 174.355 36.6442C176.658 36.6442 178.802 37.0154 180.787 37.7578C182.787 38.4851 184.529 39.5836 186.014 41.0533C187.514 42.523 188.681 44.3714 189.514 46.5987C190.348 48.8108 190.764 51.4018 190.764 54.3714V57.0305H161.287V51.0305H181.651C181.651 49.6366 181.348 48.4018 180.741 47.326C180.135 46.2502 179.295 45.4093 178.219 44.8033C177.158 44.1821 175.923 43.8714 174.514 43.8714C173.045 43.8714 171.741 44.2124 170.605 44.8942C169.484 45.5608 168.605 46.4624 167.969 47.5987C167.332 48.7199 167.007 49.9699 166.991 51.3487V57.0533C166.991 58.7805 167.31 60.273 167.946 61.5305C168.598 62.7881 169.514 63.7578 170.696 64.4396C171.878 65.1214 173.279 65.4624 174.901 65.4624C175.976 65.4624 176.961 65.3108 177.855 65.0078C178.749 64.7048 179.514 64.2502 180.151 63.6442C180.787 63.0381 181.272 62.2957 181.605 61.4169L190.56 62.0078C190.105 64.1593 189.173 66.0381 187.764 67.6442C186.37 69.2351 184.567 70.4775 182.355 71.3714C180.158 72.2502 177.62 72.6896 174.741 72.6896ZM207.037 72.6669C204.81 72.6669 202.825 72.2805 201.082 71.5078C199.34 70.7199 197.961 69.5608 196.946 68.0305C195.946 66.4851 195.446 64.5608 195.446 62.2578C195.446 60.3184 195.802 58.6896 196.514 57.3714C197.226 56.0533 198.196 54.9927 199.423 54.1896C200.651 53.3866 202.045 52.7805 203.605 52.3714C205.181 51.9624 206.832 51.6745 208.56 51.5078C210.59 51.2957 212.226 51.0987 213.469 50.9169C214.711 50.7199 215.613 50.4321 216.173 50.0533C216.734 49.6745 217.014 49.1139 217.014 48.3714V48.2351C217.014 46.7957 216.56 45.6821 215.651 44.8942C214.757 44.1063 213.484 43.7124 211.832 43.7124C210.09 43.7124 208.704 44.0987 207.673 44.8714C206.643 45.629 205.961 46.5836 205.628 47.7351L196.673 47.0078C197.128 44.8866 198.022 43.0533 199.355 41.5078C200.688 39.9472 202.408 38.7502 204.514 37.9169C206.635 37.0684 209.09 36.6442 211.878 36.6442C213.817 36.6442 215.673 36.8714 217.446 37.326C219.234 37.7805 220.817 38.4851 222.196 39.4396C223.59 40.3942 224.688 41.6214 225.491 43.1214C226.295 44.6063 226.696 46.3866 226.696 48.4624V72.0078H217.514V67.1669H217.241C216.681 68.2578 215.931 69.2199 214.991 70.0533C214.052 70.8714 212.923 71.5154 211.605 71.9851C210.287 72.4396 208.764 72.6669 207.037 72.6669ZM209.81 65.9851C211.234 65.9851 212.491 65.7048 213.582 65.1442C214.673 64.5684 215.529 63.7957 216.151 62.826C216.772 61.8563 217.082 60.7578 217.082 59.5305V55.826C216.779 56.023 216.363 56.2048 215.832 56.3714C215.317 56.523 214.734 56.6669 214.082 56.8033C213.431 56.9245 212.779 57.0381 212.128 57.1442C211.476 57.2351 210.885 57.3184 210.355 57.3942C209.219 57.5608 208.226 57.826 207.378 58.1896C206.529 58.5533 205.87 59.0457 205.401 59.6669C204.931 60.273 204.696 61.0305 204.696 61.9396C204.696 63.2578 205.173 64.2654 206.128 64.9624C207.098 65.6442 208.325 65.9851 209.81 65.9851ZM234.207 72.0078V37.0987H243.435V43.2578H243.844C244.571 41.2124 245.783 39.5987 247.48 38.4169C249.177 37.2351 251.207 36.6442 253.571 36.6442C255.965 36.6442 258.003 37.2427 259.685 38.4396C261.366 39.6214 262.488 41.2275 263.048 43.2578H263.412C264.124 41.2578 265.412 39.6593 267.276 38.4624C269.154 37.2502 271.374 36.6442 273.935 36.6442C277.192 36.6442 279.836 37.6821 281.866 39.7578C283.912 41.8184 284.935 44.7427 284.935 48.5305V72.0078H275.276V50.4396C275.276 48.5002 274.76 47.0457 273.73 46.076C272.7 45.1063 271.412 44.6214 269.866 44.6214C268.109 44.6214 266.738 45.1821 265.753 46.3033C264.768 47.4093 264.276 48.8714 264.276 50.6896V72.0078H254.889V50.2351C254.889 48.523 254.397 47.1593 253.412 46.1442C252.442 45.129 251.162 44.6214 249.571 44.6214C248.495 44.6214 247.526 44.8942 246.662 45.4396C245.813 45.9699 245.139 46.7199 244.639 47.6896C244.139 48.6442 243.889 49.7654 243.889 51.0533V72.0078H234.207Z" fill="white"/>
<path d="M333.016 58.6689C333.016 64.1621 330.345 70.0062 324.627 75.7701C318.909 81.5346 310.409 86.9219 299.593 91.3082C277.979 100.073 247.927 104.506 214.951 100.532C204.473 99.2691 192.918 98.3422 181.242 97.4056C174.08 96.8311 166.872 96.2529 159.84 95.5913C141.079 93.8263 123.285 91.4519 109.136 87.0262C94.8158 82.5466 85.5143 76.3615 81.8578 67.9212C78.2641 59.6256 79.326 47.2153 90.6475 28.1835C95.4436 20.1212 100.826 14.9385 106.913 11.5377C113.052 8.10744 120.232 6.30919 128.893 5.51806C137.599 4.72292 147.511 4.96483 159.061 5.43257C161.004 5.51122 162.99 5.59611 165.019 5.68285C174.967 6.10802 185.96 6.57785 197.968 6.57785C201.854 6.57785 205.832 6.55658 209.874 6.53496C236.03 6.39508 264.848 6.24095 288.344 11.7455C301.835 14.9061 312.995 19.8201 320.741 27.2136C328.324 34.4509 333.016 44.422 333.016 58.6689Z" stroke="#00FF0A" stroke-width="10"/>
<path d="M207.5 138V217.5M207.5 217.5L234 198.5M207.5 217.5L179 198.5" stroke="white" stroke-width="10"/>
</svg>
