<svg width="571" height="458" viewBox="0 0 571 458" fill="none" xmlns="http://www.w3.org/2000/svg">
<rect width="570" height="458" fill="#1A1A1E"/>
<path d="M33.4296 177.856V142.946H40.8103V171.77H55.7762V177.856H33.4296ZM60.664 177.856V142.946H84.1867V149.032H68.0447V157.35H82.9765V163.435H68.0447V171.77H84.2549V177.856H60.664ZM96.0716 177.856H88.1626L100.214 142.946H109.725L121.759 177.856H113.85L105.106 150.924H104.833L96.0716 177.856ZM95.5773 164.134H114.259V169.895H95.5773V164.134ZM125.961 177.856V142.946H139.734C142.37 142.946 144.62 143.418 146.484 144.361C148.359 145.293 149.785 146.617 150.762 148.333C151.751 150.037 152.245 152.043 152.245 154.35C152.245 156.668 151.745 158.662 150.745 160.333C149.745 161.992 148.296 163.265 146.398 164.151C144.512 165.037 142.228 165.481 139.546 165.481H130.324V159.549H138.353C139.762 159.549 140.932 159.356 141.864 158.969C142.796 158.583 143.489 158.003 143.944 157.231C144.41 156.458 144.643 155.498 144.643 154.35C144.643 153.191 144.41 152.213 143.944 151.418C143.489 150.623 142.79 150.02 141.847 149.611C140.915 149.191 139.739 148.981 138.319 148.981H133.342V177.856H125.961ZM144.813 161.969L153.489 177.856H145.342L136.853 161.969H144.813ZM186.66 142.946V177.856H180.285L165.097 155.884H164.842V177.856H157.461V142.946H163.938L179.006 164.901H179.313V142.946H186.66Z" fill="white"/>
<path d="M369.074 40.168H361.609C361.472 39.2021 361.194 38.3442 360.773 37.5942C360.353 36.8328 359.813 36.1851 359.154 35.651C358.495 35.1169 357.734 34.7078 356.87 34.4237C356.018 34.1396 355.092 33.9976 354.092 33.9976C352.285 33.9976 350.711 34.4464 349.37 35.3442C348.029 36.2305 346.989 37.526 346.251 39.2305C345.512 40.9237 345.143 42.9805 345.143 45.401C345.143 47.8896 345.512 49.9805 346.251 51.6737C347.001 53.3669 348.046 54.6453 349.387 55.5089C350.728 56.3726 352.279 56.8044 354.04 56.8044C355.029 56.8044 355.944 56.6737 356.785 56.4123C357.637 56.151 358.393 55.7703 359.052 55.2703C359.711 54.7589 360.256 54.1396 360.688 53.4123C361.131 52.6851 361.438 51.8555 361.609 50.9237L369.074 50.9578C368.881 52.5601 368.398 54.1055 367.626 55.5942C366.864 57.0714 365.836 58.3953 364.54 59.5658C363.256 60.7248 361.722 61.6453 359.938 62.3271C358.165 62.9976 356.16 63.3328 353.921 63.3328C350.807 63.3328 348.023 62.6283 345.569 61.2192C343.126 59.8101 341.194 57.7703 339.773 55.0998C338.364 52.4294 337.66 49.1964 337.66 45.401C337.66 41.5942 338.376 38.3555 339.807 35.6851C341.239 33.0146 343.182 30.9805 345.637 29.5828C348.092 28.1737 350.853 27.4692 353.921 27.4692C355.944 27.4692 357.819 27.7533 359.546 28.3214C361.285 28.8896 362.824 29.7192 364.165 30.8101C365.506 31.8896 366.597 33.2135 367.438 34.7817C368.29 36.3498 368.836 38.1453 369.074 40.168ZM406.447 45.401C406.447 49.2078 405.725 52.4464 404.282 55.1169C402.85 57.7873 400.896 59.8271 398.418 61.2362C395.952 62.6339 393.18 63.3328 390.1 63.3328C386.998 63.3328 384.214 62.6283 381.748 61.2192C379.282 59.8101 377.333 57.7703 375.901 55.0998C374.469 52.4294 373.753 49.1964 373.753 45.401C373.753 41.5942 374.469 38.3555 375.901 35.6851C377.333 33.0146 379.282 30.9805 381.748 29.5828C384.214 28.1737 386.998 27.4692 390.1 27.4692C393.18 27.4692 395.952 28.1737 398.418 29.5828C400.896 30.9805 402.85 33.0146 404.282 35.6851C405.725 38.3555 406.447 41.5942 406.447 45.401ZM398.964 45.401C398.964 42.9351 398.594 40.8555 397.856 39.1623C397.128 37.4692 396.1 36.1851 394.771 35.3101C393.441 34.4351 391.884 33.9976 390.1 33.9976C388.316 33.9976 386.759 34.4351 385.43 35.3101C384.1 36.1851 383.066 37.4692 382.327 39.1623C381.6 40.8555 381.236 42.9351 381.236 45.401C381.236 47.8669 381.6 49.9464 382.327 51.6396C383.066 53.3328 384.1 54.6169 385.43 55.4919C386.759 56.3669 388.316 56.8044 390.1 56.8044C391.884 56.8044 393.441 56.3669 394.771 55.4919C396.1 54.6169 397.128 53.3328 397.856 51.6396C398.594 49.9464 398.964 47.8669 398.964 45.401ZM411.914 62.8555V27.9464H419.295V56.7703H434.261V62.8555H411.914ZM439.148 62.8555V27.9464H446.529V56.7703H461.495V62.8555H439.148ZM473.29 62.8555H465.381L477.432 27.9464H486.944L498.978 62.8555H491.069L482.324 35.9237H482.052L473.29 62.8555ZM472.796 49.1339H491.478V54.8953H472.796V49.1339ZM503.18 62.8555V27.9464H517.157C519.725 27.9464 521.867 28.3271 523.583 29.0885C525.299 29.8498 526.589 30.9067 527.452 32.2589C528.316 33.5998 528.748 35.1453 528.748 36.8953C528.748 38.2589 528.475 39.4578 527.93 40.4919C527.384 41.5146 526.634 42.3555 525.68 43.0146C524.736 43.6623 523.657 44.1226 522.441 44.3953V44.7362C523.771 44.793 525.015 45.168 526.174 45.8612C527.344 46.5544 528.293 47.526 529.021 48.776C529.748 50.0146 530.111 51.4919 530.111 53.2078C530.111 55.0601 529.651 56.7135 528.731 58.168C527.822 59.6112 526.475 60.7533 524.691 61.5942C522.907 62.4351 520.708 62.8555 518.094 62.8555H503.18ZM510.56 56.8214H516.577C518.634 56.8214 520.134 56.4294 521.077 55.6453C522.021 54.8498 522.492 53.793 522.492 52.4748C522.492 51.5089 522.259 50.6567 521.793 49.918C521.327 49.1794 520.663 48.5998 519.799 48.1794C518.947 47.7589 517.93 47.5487 516.748 47.5487H510.56V56.8214ZM510.56 42.5544H516.032C517.043 42.5544 517.941 42.3783 518.725 42.026C519.521 41.6623 520.146 41.151 520.6 40.4919C521.066 39.8328 521.299 39.043 521.299 38.1226C521.299 36.8612 520.85 35.8442 519.952 35.0714C519.066 34.2987 517.805 33.9123 516.168 33.9123H510.56V42.5544Z" fill="white"/>
<path d="M392.914 287.856V252.946H406.891C409.459 252.946 411.601 253.327 413.317 254.088C415.033 254.85 416.323 255.907 417.187 257.259C418.05 258.6 418.482 260.145 418.482 261.895C418.482 263.259 418.209 264.458 417.664 265.492C417.119 266.515 416.369 267.356 415.414 268.015C414.471 268.662 413.391 269.123 412.175 269.395V269.736C413.505 269.793 414.749 270.168 415.908 270.861C417.079 271.554 418.028 272.526 418.755 273.776C419.482 275.015 419.846 276.492 419.846 278.208C419.846 280.06 419.386 281.713 418.465 283.168C417.556 284.611 416.209 285.753 414.425 286.594C412.641 287.435 410.442 287.856 407.829 287.856H392.914ZM400.295 281.821H406.312C408.369 281.821 409.869 281.429 410.812 280.645C411.755 279.85 412.226 278.793 412.226 277.475C412.226 276.509 411.994 275.657 411.528 274.918C411.062 274.179 410.397 273.6 409.533 273.179C408.681 272.759 407.664 272.549 406.482 272.549H400.295V281.821ZM400.295 267.554H405.766C406.778 267.554 407.675 267.378 408.459 267.026C409.255 266.662 409.88 266.151 410.334 265.492C410.8 264.833 411.033 264.043 411.033 263.123C411.033 261.861 410.584 260.844 409.687 260.071C408.8 259.299 407.539 258.912 405.903 258.912H400.295V267.554ZM446.211 252.946H453.592V275.617C453.592 278.162 452.984 280.39 451.768 282.299C450.563 284.208 448.876 285.696 446.705 286.765C444.535 287.821 442.006 288.35 439.12 288.35C436.222 288.35 433.688 287.821 431.518 286.765C429.347 285.696 427.66 284.208 426.455 282.299C425.251 280.39 424.648 278.162 424.648 275.617V252.946H432.029V274.986C432.029 276.316 432.319 277.498 432.898 278.532C433.489 279.566 434.319 280.378 435.387 280.969C436.455 281.56 437.699 281.856 439.12 281.856C440.552 281.856 441.796 281.56 442.853 280.969C443.921 280.378 444.745 279.566 445.324 278.532C445.915 277.498 446.211 276.316 446.211 274.986V252.946ZM467.045 252.946V287.856H459.664V252.946H467.045ZM473.117 287.856V252.946H480.498V281.77H495.464V287.856H473.117ZM512.726 287.856H500.351V252.946H512.829C516.34 252.946 519.363 253.645 521.897 255.043C524.431 256.429 526.38 258.424 527.744 261.026C529.119 263.628 529.806 266.742 529.806 270.367C529.806 274.003 529.119 277.128 527.744 279.742C526.38 282.356 524.42 284.361 521.863 285.759C519.317 287.157 516.272 287.856 512.726 287.856ZM507.732 281.532H512.42C514.601 281.532 516.437 281.145 517.925 280.373C519.425 279.588 520.55 278.378 521.3 276.742C522.062 275.094 522.442 272.969 522.442 270.367C522.442 267.787 522.062 265.679 521.3 264.043C520.55 262.407 519.431 261.202 517.942 260.429C516.454 259.657 514.619 259.27 512.437 259.27H507.732V281.532Z" fill="white"/>
<path d="M39.5312 390.946H48.6334L58.2471 414.401H58.6562L68.2698 390.946H77.3721V425.856H70.213V403.134H69.9232L60.8891 425.685H56.0141L46.98 403.049H46.6903V425.856H39.5312V390.946ZM83.453 425.856V390.946H106.976V397.032H90.8337V405.35H105.766V411.435H90.8337V419.77H107.044V425.856H83.453ZM142.043 390.946V425.856H135.668L120.48 403.884H120.224V425.856H112.844V390.946H119.321L134.389 412.901H134.696V390.946H142.043ZM146.811 397.032V390.946H175.481V397.032H164.794V425.856H157.498V397.032H146.811ZM210.689 408.401C210.689 412.208 209.967 415.446 208.524 418.117C207.092 420.787 205.138 422.827 202.66 424.236C200.195 425.634 197.422 426.333 194.342 426.333C191.24 426.333 188.456 425.628 185.99 424.219C183.524 422.81 181.575 420.77 180.143 418.1C178.712 415.429 177.996 412.196 177.996 408.401C177.996 404.594 178.712 401.356 180.143 398.685C181.575 396.015 183.524 393.981 185.99 392.583C188.456 391.174 191.24 390.469 194.342 390.469C197.422 390.469 200.195 391.174 202.66 392.583C205.138 393.981 207.092 396.015 208.524 398.685C209.967 401.356 210.689 404.594 210.689 408.401ZM203.206 408.401C203.206 405.935 202.837 403.856 202.098 402.162C201.371 400.469 200.342 399.185 199.013 398.31C197.683 397.435 196.126 396.998 194.342 396.998C192.558 396.998 191.001 397.435 189.672 398.31C188.342 399.185 187.308 400.469 186.57 402.162C185.842 403.856 185.479 405.935 185.479 408.401C185.479 410.867 185.842 412.946 186.57 414.64C187.308 416.333 188.342 417.617 189.672 418.492C191.001 419.367 192.558 419.804 194.342 419.804C196.126 419.804 197.683 419.367 199.013 418.492C200.342 417.617 201.371 416.333 202.098 414.64C202.837 412.946 203.206 410.867 203.206 408.401ZM216.156 425.856V390.946H229.929C232.565 390.946 234.815 391.418 236.679 392.361C238.554 393.293 239.98 394.617 240.957 396.333C241.946 398.037 242.44 400.043 242.44 402.35C242.44 404.668 241.94 406.662 240.94 408.333C239.94 409.992 238.491 411.265 236.594 412.151C234.707 413.037 232.423 413.481 229.741 413.481H220.52V407.549H228.548C229.957 407.549 231.128 407.356 232.06 406.969C232.991 406.583 233.685 406.003 234.139 405.231C234.605 404.458 234.838 403.498 234.838 402.35C234.838 401.191 234.605 400.213 234.139 399.418C233.685 398.623 232.986 398.02 232.043 397.611C231.111 397.191 229.935 396.981 228.514 396.981H223.537V425.856H216.156ZM235.008 409.969L243.685 425.856H235.537L227.048 409.969H235.008Z" fill="white"/>
<path d="M2.1956 156.552L2.20525 156.454V156.356C2.20525 146.369 10.0852 135.027 26.0081 126.064C41.8353 117.155 65.2297 110.856 95.2052 110.856C125.366 110.856 156.131 113.603 179.288 120.827C190.869 124.44 200.399 129.128 207.002 135.027C213.554 140.88 217.205 147.895 217.205 156.356C217.205 166.661 211.888 179.19 196.779 189.224C181.619 199.29 156.558 206.856 117.205 206.856C77.7079 206.856 47.9223 202.604 28.5168 194.087C18.8364 189.838 11.865 184.582 7.5172 178.386C3.19545 172.228 1.36313 164.995 2.1956 156.552Z" stroke="#46E04C" stroke-width="4"/>
<path d="M317.05 46.0517L317.059 45.9539V45.8555C317.059 40.5896 318.046 35.6594 320.794 31.1215C323.545 26.58 328.164 22.2614 335.718 18.4013C350.912 10.636 377.596 4.91686 423.355 2.85347C473.242 0.603953 507.111 2.75544 528.452 9.87765C539.085 13.4263 546.447 18.1577 551.158 24.0429C555.846 29.8999 558.059 37.0871 558.059 45.8555C558.059 56.1367 553.365 67.9705 536.496 76.9362C519.458 85.9918 490.004 92.1023 440.63 90.3568C391.056 88.6041 359.127 85.8487 340.028 79.2162C330.529 75.9175 324.463 71.7427 320.93 66.4893C317.41 61.2563 316.202 54.6507 317.05 46.0517Z" stroke="#E046D1" stroke-width="4"/>
<path d="M11.0497 405.052L11.0593 404.954V404.856C11.0593 399.671 12.3161 394.355 15.5678 389.27C18.8248 384.176 24.1519 379.208 32.4535 374.841C49.113 366.078 77.5257 359.856 124.264 359.856H124.298L124.332 359.854C176.167 358.107 214.581 361.493 239.966 369.757C252.648 373.886 261.931 379.186 268.026 385.537C274.075 391.84 277.059 399.252 277.059 407.856C277.059 413.039 275.804 418.533 272.289 423.891C268.766 429.26 262.899 434.607 253.496 439.355C234.631 448.88 201.811 455.856 146.264 455.856C90.6202 455.856 55.811 451.466 35.3931 442.826C25.236 438.528 18.8045 433.246 15.0824 427.08C11.3648 420.921 10.2031 413.639 11.0497 405.052Z" stroke="#ED5AD5" stroke-width="4"/>
<path d="M353.255 267.552L353.265 267.454V267.356C353.265 257.369 361.145 246.027 377.068 237.064C392.895 228.155 416.289 221.856 446.265 221.856C476.425 221.856 507.191 224.603 530.347 231.827C541.929 235.44 551.459 240.128 558.062 246.027C564.614 251.88 568.265 258.895 568.265 267.356C568.265 277.661 562.948 290.19 547.838 300.224C532.679 310.29 507.617 317.856 468.265 317.856C428.767 317.856 398.982 313.604 379.576 305.087C369.896 300.838 362.925 295.582 358.577 289.386C354.255 283.228 352.423 275.995 353.255 267.552Z" stroke="#46E04C" stroke-width="4"/>
<path d="M210.551 109.981C214.42 106.815 220.472 104.455 224.914 102.032C229.198 99.6948 234.286 96.409 238.236 93.6439C239.581 92.7024 242.006 91.5878 243.663 91.2865C246.739 90.7274 246.611 88.469 249.036 87.0652C252.627 84.9862 255.951 82.6769 259.891 81.3637" stroke="white" stroke-width="6" stroke-linecap="round"/>
<path d="M238.181 65.5749C251.502 65.5749 264.824 65.5749 278.146 65.5749C283.161 65.5749 277.694 79.877 275.679 82.8987C272.133 88.2182 267.785 98.6756 267.785 105.047" stroke="white" stroke-width="6" stroke-linecap="round"/>
<path d="M441.461 119.849C445.272 127.894 446.395 138.73 446.395 147.534C446.395 155.739 446.395 163.944 446.395 172.149" stroke="white" stroke-width="6" stroke-linecap="round"/>
<path d="M424.686 172.149C432.854 176.887 441.405 181.412 448.15 188.157C452.123 192.13 452.068 198.203 455.77 190.515C460.224 181.265 466.921 172.807 472.052 164.255" stroke="white" stroke-width="6" stroke-linecap="round"/>
<path d="M345.742 318.195C342.952 316.242 337.759 322.143 335.655 323.787C328.239 329.581 319.667 333.352 312.246 338.918C306.029 343.581 299.095 347.763 292.455 351.747" stroke="white" stroke-width="6" stroke-linecap="round"/>
<path d="M305.283 370.496C296.194 370.496 287.989 370.654 279.462 368.522C278.447 368.269 274.602 368.144 273.925 367.316C271.903 364.845 276.761 356.886 277.653 354.707C280.536 347.659 283.706 340.362 285.547 332.997" stroke="white" stroke-width="6" stroke-linecap="round"/>
<path d="M113.844 268.856C117.353 290.349 117.791 310.445 117.791 332.011" stroke="white" stroke-width="6" stroke-linecap="round"/>
<path d="M112.857 240.238C104.525 251.009 95.8242 264.179 86.2139 273.79" stroke="white" stroke-width="6" stroke-linecap="round"/>
<path d="M109.897 245.172C118.436 250.521 140.15 260.259 142.461 271.816" stroke="white" stroke-width="6" stroke-linecap="round"/>
</svg>
