<svg width="406" height="240" viewBox="0 0 406 240" fill="none" xmlns="http://www.w3.org/2000/svg">
<path d="M87.1733 45.4624L98.4233 80.826H98.8551L110.128 45.4624H121.037L104.991 92.0078H92.3097L76.2415 45.4624H87.1733ZM132.537 92.6669C130.31 92.6669 128.325 92.2805 126.582 91.5078C124.84 90.7199 123.461 89.5608 122.446 88.0305C121.446 86.4851 120.946 84.5608 120.946 82.2578C120.946 80.3184 121.302 78.6896 122.014 77.3714C122.726 76.0533 123.696 74.9927 124.923 74.1896C126.151 73.3866 127.545 72.7805 129.105 72.3714C130.681 71.9624 132.332 71.6745 134.06 71.5078C136.09 71.2957 137.726 71.0987 138.969 70.9169C140.211 70.7199 141.113 70.4321 141.673 70.0533C142.234 69.6745 142.514 69.1139 142.514 68.3714V68.2351C142.514 66.7957 142.06 65.6821 141.151 64.8942C140.257 64.1063 138.984 63.7124 137.332 63.7124C135.59 63.7124 134.204 64.0987 133.173 64.8714C132.143 65.629 131.461 66.5836 131.128 67.7351L122.173 67.0078C122.628 64.8866 123.522 63.0533 124.855 61.5078C126.188 59.9472 127.908 58.7502 130.014 57.9169C132.135 57.0684 134.59 56.6442 137.378 56.6442C139.317 56.6442 141.173 56.8714 142.946 57.326C144.734 57.7805 146.317 58.4851 147.696 59.4396C149.09 60.3942 150.188 61.6214 150.991 63.1214C151.795 64.6063 152.196 66.3866 152.196 68.4624V92.0078H143.014V87.1669H142.741C142.181 88.2578 141.431 89.2199 140.491 90.0533C139.552 90.8714 138.423 91.5154 137.105 91.9851C135.787 92.4396 134.264 92.6669 132.537 92.6669ZM135.31 85.9851C136.734 85.9851 137.991 85.7048 139.082 85.1442C140.173 84.5684 141.029 83.7957 141.651 82.826C142.272 81.8563 142.582 80.7578 142.582 79.5305V75.826C142.279 76.023 141.863 76.2048 141.332 76.3714C140.817 76.523 140.234 76.6669 139.582 76.8033C138.931 76.9245 138.279 77.0381 137.628 77.1442C136.976 77.2351 136.385 77.3184 135.855 77.3942C134.719 77.5608 133.726 77.826 132.878 78.1896C132.029 78.5533 131.37 79.0457 130.901 79.6669C130.431 80.273 130.196 81.0305 130.196 81.9396C130.196 83.2578 130.673 84.2654 131.628 84.9624C132.598 85.6442 133.825 85.9851 135.31 85.9851ZM169.389 45.4624V92.0078H159.707V45.4624H169.389ZM177.145 92.0078V57.0987H186.827V92.0078H177.145ZM182.009 52.5987C180.569 52.5987 179.334 52.1214 178.304 51.1669C177.289 50.1972 176.781 49.0381 176.781 47.6896C176.781 46.3563 177.289 45.2124 178.304 44.2578C179.334 43.2881 180.569 42.8033 182.009 42.8033C183.448 42.8033 184.675 43.2881 185.69 44.2578C186.721 45.2124 187.236 46.3563 187.236 47.6896C187.236 49.0381 186.721 50.1972 185.69 51.1669C184.675 52.1214 183.448 52.5987 182.009 52.5987ZM207.446 92.576C204.795 92.576 202.393 91.8942 200.241 90.5305C198.105 89.1518 196.408 87.129 195.151 84.4624C193.908 81.7805 193.287 78.4927 193.287 74.5987C193.287 70.5987 193.931 67.273 195.219 64.6214C196.507 61.9548 198.219 59.9624 200.355 58.6442C202.507 57.3108 204.863 56.6442 207.423 56.6442C209.378 56.6442 211.007 56.9775 212.31 57.6442C213.628 58.2957 214.688 59.1139 215.491 60.0987C216.31 61.0684 216.931 62.023 217.355 62.9624H217.651V45.4624H227.31V92.0078H217.764V86.4169H217.355C216.901 87.3866 216.257 88.3487 215.423 89.3033C214.605 90.2427 213.537 91.023 212.219 91.6442C210.916 92.2654 209.325 92.576 207.446 92.576ZM210.514 84.8714C212.075 84.8714 213.393 84.4472 214.469 83.5987C215.56 82.7351 216.393 81.5305 216.969 79.9851C217.56 78.4396 217.855 76.629 217.855 74.5533C217.855 72.4775 217.567 70.6745 216.991 69.1442C216.416 67.6139 215.582 66.4321 214.491 65.5987C213.401 64.7654 212.075 64.3487 210.514 64.3487C208.923 64.3487 207.582 64.7805 206.491 65.6442C205.401 66.5078 204.575 67.7048 204.014 69.2351C203.454 70.7654 203.173 72.5381 203.173 74.5533C203.173 76.5836 203.454 78.379 204.014 79.9396C204.59 81.4851 205.416 82.6972 206.491 83.576C207.582 84.4396 208.923 84.8714 210.514 84.8714ZM245.224 92.6669C242.997 92.6669 241.012 92.2805 239.27 91.5078C237.527 90.7199 236.149 89.5608 235.134 88.0305C234.134 86.4851 233.634 84.5608 233.634 82.2578C233.634 80.3184 233.99 78.6896 234.702 77.3714C235.414 76.0533 236.384 74.9927 237.611 74.1896C238.838 73.3866 240.232 72.7805 241.793 72.3714C243.368 71.9624 245.02 71.6745 246.747 71.5078C248.777 71.2957 250.414 71.0987 251.656 70.9169C252.899 70.7199 253.8 70.4321 254.361 70.0533C254.921 69.6745 255.202 69.1139 255.202 68.3714V68.2351C255.202 66.7957 254.747 65.6821 253.838 64.8942C252.944 64.1063 251.671 63.7124 250.02 63.7124C248.277 63.7124 246.891 64.0987 245.861 64.8714C244.83 65.629 244.149 66.5836 243.815 67.7351L234.861 67.0078C235.315 64.8866 236.209 63.0533 237.543 61.5078C238.876 59.9472 240.596 58.7502 242.702 57.9169C244.823 57.0684 247.277 56.6442 250.065 56.6442C252.005 56.6442 253.861 56.8714 255.634 57.326C257.421 57.7805 259.005 58.4851 260.384 59.4396C261.777 60.3942 262.876 61.6214 263.679 63.1214C264.482 64.6063 264.884 66.3866 264.884 68.4624V92.0078H255.702V87.1669H255.429C254.868 88.2578 254.118 89.2199 253.179 90.0533C252.24 90.8714 251.111 91.5154 249.793 91.9851C248.474 92.4396 246.952 92.6669 245.224 92.6669ZM247.997 85.9851C249.421 85.9851 250.679 85.7048 251.77 85.1442C252.861 84.5684 253.717 83.7957 254.338 82.826C254.959 81.8563 255.27 80.7578 255.27 79.5305V75.826C254.967 76.023 254.55 76.2048 254.02 76.3714C253.505 76.523 252.921 76.6669 252.27 76.8033C251.618 76.9245 250.967 77.0381 250.315 77.1442C249.664 77.2351 249.073 77.3184 248.543 77.3942C247.406 77.5608 246.414 77.826 245.565 78.1896C244.717 78.5533 244.058 79.0457 243.588 79.6669C243.118 80.273 242.884 81.0305 242.884 81.9396C242.884 83.2578 243.361 84.2654 244.315 84.9624C245.285 85.6442 246.512 85.9851 247.997 85.9851ZM290.963 57.0987V64.3714H269.94V57.0987H290.963ZM274.713 48.7351H284.395V81.2805C284.395 82.1745 284.531 82.8714 284.804 83.3714C285.077 83.8563 285.455 84.1972 285.94 84.3942C286.44 84.5911 287.016 84.6896 287.668 84.6896C288.122 84.6896 288.577 84.6518 289.031 84.576C289.486 84.4851 289.834 84.4169 290.077 84.3714L291.599 91.576C291.115 91.7275 290.433 91.9018 289.554 92.0987C288.675 92.3108 287.607 92.4396 286.349 92.4851C284.016 92.576 281.971 92.2654 280.213 91.5533C278.471 90.8411 277.115 89.7351 276.145 88.2351C275.175 86.7351 274.698 84.8411 274.713 82.5533V48.7351ZM312.804 92.6896C309.213 92.6896 306.122 91.9624 303.531 90.5078C300.955 89.0381 298.971 86.9624 297.577 84.2805C296.183 81.5836 295.486 78.3942 295.486 74.7124C295.486 71.1214 296.183 67.9699 297.577 65.2578C298.971 62.5457 300.933 60.4321 303.463 58.9169C306.009 57.4018 308.993 56.6442 312.418 56.6442C314.721 56.6442 316.865 57.0154 318.849 57.7578C320.849 58.4851 322.592 59.5836 324.077 61.0533C325.577 62.523 326.743 64.3714 327.577 66.5987C328.41 68.8108 328.827 71.4018 328.827 74.3714V77.0305H299.349V71.0305H319.713C319.713 69.6366 319.41 68.4018 318.804 67.326C318.198 66.2502 317.357 65.4093 316.281 64.8033C315.221 64.1821 313.986 63.8714 312.577 63.8714C311.107 63.8714 309.804 64.2124 308.668 64.8942C307.546 65.5608 306.668 66.4624 306.031 67.5987C305.395 68.7199 305.069 69.9699 305.054 71.3487V77.0533C305.054 78.7805 305.372 80.273 306.009 81.5305C306.66 82.7881 307.577 83.7578 308.759 84.4396C309.94 85.1214 311.342 85.4624 312.963 85.4624C314.039 85.4624 315.024 85.3108 315.918 85.0078C316.812 84.7048 317.577 84.2502 318.213 83.6442C318.849 83.0381 319.334 82.2957 319.668 81.4169L328.622 82.0078C328.168 84.1593 327.236 86.0381 325.827 87.6442C324.433 89.2351 322.63 90.4775 320.418 91.3714C318.221 92.2502 315.683 92.6896 312.804 92.6896Z" fill="white"/>
<path d="M366.016 73.4018C366.016 78.8757 363.274 85.0134 356.993 91.3679C350.724 97.711 341.239 103.929 328.678 109.397C303.577 120.322 266.997 127.899 221.839 127.899C176.032 127.899 126.894 126.245 93.1919 114.206C76.3977 108.207 64.2112 99.8923 57.8765 88.6664C51.6394 77.6134 50.4924 62.6775 58.0664 42.0229C62.7389 29.2809 69.0327 21.0604 76.6532 15.6525C84.3298 10.2047 93.7894 7.29986 105.319 5.96161C116.892 4.61816 130.186 4.88827 145.366 5.52951C148.503 5.66202 151.718 5.8102 155.007 5.96179C167.515 6.53838 181.093 7.16424 195.523 7.16424C231.607 7.16424 274.89 9.45794 309.011 19.2999C326.073 24.2214 340.431 30.9178 350.448 39.8118C360.314 48.5706 366.016 59.4751 366.016 73.4018Z" stroke="#ED5AD5" stroke-width="10"/>
<path d="M203.5 154V233.5M203.5 233.5L230 214.5M203.5 233.5L175 214.5" stroke="white" stroke-width="10"/>
</svg>
