<svg width="336" height="257" viewBox="0 0 336 257" fill="none" xmlns="http://www.w3.org/2000/svg">
<rect x="21" width="304" height="257" fill="#1A1A1E"/>
<path d="M88.1619 88H77.6165L93.6847 41.4545H106.366L122.412 88H111.866L100.207 52.0909H99.8438L88.1619 88ZM87.5028 69.7045H112.412V77.3864H87.5028V69.7045ZM127.832 101.091V53.0909H137.378V58.9545H137.81C138.234 58.0152 138.848 57.0606 139.651 56.0909C140.469 55.1061 141.529 54.2879 142.832 53.6364C144.151 52.9697 145.787 52.6364 147.741 52.6364C150.287 52.6364 152.635 53.303 154.787 54.6364C156.938 55.9545 158.658 57.947 159.946 60.6136C161.234 63.2652 161.878 66.5909 161.878 70.5909C161.878 74.4848 161.249 77.7727 159.991 80.4545C158.749 83.1212 157.052 85.1439 154.901 86.5227C152.764 87.8864 150.37 88.5682 147.719 88.5682C145.84 88.5682 144.241 88.2576 142.923 87.6364C141.62 87.0152 140.552 86.2348 139.719 85.2955C138.885 84.3409 138.249 83.3788 137.81 82.4091H137.514V101.091H127.832ZM137.31 70.5455C137.31 72.6212 137.598 74.4318 138.173 75.9773C138.749 77.5227 139.582 78.7273 140.673 79.5909C141.764 80.4394 143.09 80.8636 144.651 80.8636C146.226 80.8636 147.56 80.4318 148.651 79.5682C149.741 78.6894 150.567 77.4773 151.128 75.9318C151.704 74.3712 151.991 72.5758 151.991 70.5455C151.991 68.5303 151.711 66.7576 151.151 65.2273C150.59 63.697 149.764 62.5 148.673 61.6364C147.582 60.7727 146.241 60.3409 144.651 60.3409C143.075 60.3409 141.741 60.7576 140.651 61.5909C139.575 62.4242 138.749 63.6061 138.173 65.1364C137.598 66.6667 137.31 68.4697 137.31 70.5455ZM168.332 101.091V53.0909H177.878V58.9545H178.31C178.734 58.0152 179.348 57.0606 180.151 56.0909C180.969 55.1061 182.029 54.2879 183.332 53.6364C184.651 52.9697 186.287 52.6364 188.241 52.6364C190.787 52.6364 193.135 53.303 195.287 54.6364C197.438 55.9545 199.158 57.947 200.446 60.6136C201.734 63.2652 202.378 66.5909 202.378 70.5909C202.378 74.4848 201.749 77.7727 200.491 80.4545C199.249 83.1212 197.552 85.1439 195.401 86.5227C193.264 87.8864 190.87 88.5682 188.219 88.5682C186.34 88.5682 184.741 88.2576 183.423 87.6364C182.12 87.0152 181.052 86.2348 180.219 85.2955C179.385 84.3409 178.749 83.3788 178.31 82.4091H178.014V101.091H168.332ZM177.81 70.5455C177.81 72.6212 178.098 74.4318 178.673 75.9773C179.249 77.5227 180.082 78.7273 181.173 79.5909C182.264 80.4394 183.59 80.8636 185.151 80.8636C186.726 80.8636 188.06 80.4318 189.151 79.5682C190.241 78.6894 191.067 77.4773 191.628 75.9318C192.204 74.3712 192.491 72.5758 192.491 70.5455C192.491 68.5303 192.211 66.7576 191.651 65.2273C191.09 63.697 190.264 62.5 189.173 61.6364C188.082 60.7727 186.741 60.3409 185.151 60.3409C183.575 60.3409 182.241 60.7576 181.151 61.5909C180.075 62.4242 179.249 63.6061 178.673 65.1364C178.098 66.6667 177.81 68.4697 177.81 70.5455ZM218.514 41.4545V88H208.832V41.4545H218.514ZM232.247 101.091C231.02 101.091 229.868 100.992 228.793 100.795C227.732 100.614 226.853 100.379 226.156 100.091L228.338 92.8636C229.474 93.2121 230.497 93.4015 231.406 93.4318C232.33 93.4621 233.126 93.25 233.793 92.7955C234.474 92.3409 235.027 91.5682 235.452 90.4773L236.02 89L223.497 53.0909H233.679L240.906 78.7273H241.27L248.565 53.0909H258.815L245.247 91.7727C244.596 93.6515 243.709 95.2879 242.588 96.6818C241.482 98.0909 240.08 99.1742 238.384 99.9318C236.687 100.705 234.641 101.091 232.247 101.091Z" fill="white"/>
<path d="M43.1839 55.3903L43.7153 54.3317V53.1472C43.7153 39.8919 50.4507 28.1546 67.212 19.431C84.2817 10.5468 111.491 5 151.326 5C191.709 5 232.134 5.0368 262.492 13.1294C277.603 17.1574 289.702 23.0599 297.995 31.5087C306.152 39.818 311 50.9651 311 66.3848C311 79.7232 302.975 95.998 282.436 109.482C261.89 122.97 229.025 133.458 180.408 134.759C131.246 136.075 87.9339 132.118 61.4858 119.572C48.3838 113.356 40.0697 105.345 36.7233 95.4314C33.3721 85.5036 34.6027 72.4857 43.1839 55.3903Z" stroke="white" stroke-width="10"/>
<path d="M168.5 166V245.5M168.5 245.5L195 226.5M168.5 245.5L140 226.5" stroke="white" stroke-width="10"/>
</svg>
