<svg width="377" height="158" viewBox="0 0 377 158" fill="none" xmlns="http://www.w3.org/2000/svg">
<path d="M78.7642 46.8409C78.5824 45.0076 77.8021 43.5833 76.4233 42.5682C75.0445 41.553 73.1733 41.0455 70.8097 41.0455C69.2036 41.0455 67.8475 41.2727 66.7415 41.7273C65.6354 42.1667 64.7869 42.7803 64.196 43.5682C63.6203 44.3561 63.3324 45.25 63.3324 46.25C63.3021 47.0833 63.4763 47.8106 63.8551 48.4318C64.2491 49.053 64.7869 49.5909 65.4688 50.0455C66.1506 50.4848 66.9384 50.8712 67.8324 51.2045C68.7263 51.5227 69.6809 51.7955 70.696 52.0227L74.8778 53.0227C76.9081 53.4773 78.7718 54.0833 80.4688 54.8409C82.1657 55.5985 83.6354 56.5303 84.8778 57.6364C86.1203 58.7424 87.0824 60.0455 87.7642 61.5455C88.4612 63.0455 88.8172 64.7652 88.8324 66.7045C88.8172 69.553 88.09 72.0227 86.6506 74.1136C85.2263 76.1894 83.1657 77.803 80.4688 78.9545C77.7869 80.0909 74.5521 80.6591 70.7642 80.6591C67.0066 80.6591 63.7339 80.0833 60.946 78.9318C58.1733 77.7803 56.0066 76.0758 54.446 73.8182C52.9006 71.5455 52.09 68.7348 52.0142 65.3864H61.5369C61.643 66.947 62.09 68.25 62.8778 69.2955C63.6809 70.3258 64.7491 71.1061 66.0824 71.6364C67.4309 72.1515 68.9536 72.4091 70.6506 72.4091C72.3172 72.4091 73.7642 72.1667 74.9915 71.6818C76.2339 71.197 77.196 70.5227 77.8778 69.6591C78.5597 68.7955 78.9006 67.803 78.9006 66.6818C78.9006 65.6364 78.59 64.7576 77.9688 64.0455C77.3627 63.3333 76.4688 62.7273 75.2869 62.2273C74.1203 61.7273 72.6884 61.2727 70.9915 60.8636L65.9233 59.5909C61.9991 58.6364 58.9006 57.1439 56.6278 55.1136C54.3551 53.0833 53.2263 50.3485 53.2415 46.9091C53.2263 44.0909 53.9763 41.6288 55.4915 39.5227C57.0218 37.4167 59.1203 35.7727 61.7869 34.5909C64.4536 33.4091 67.4839 32.8182 70.8778 32.8182C74.3324 32.8182 77.3475 33.4091 79.9233 34.5909C82.5142 35.7727 84.5294 37.4167 85.9688 39.5227C87.4081 41.6288 88.1506 44.0682 88.196 46.8409H78.7642ZM117.656 65.1364V45.0909H127.338V80H118.043V73.6591H117.679C116.891 75.7045 115.58 77.3485 113.747 78.5909C111.929 79.8333 109.709 80.4545 107.088 80.4545C104.755 80.4545 102.702 79.9242 100.929 78.8636C99.1563 77.803 97.7699 76.2955 96.7699 74.3409C95.785 72.3864 95.285 70.0455 95.2699 67.3182V45.0909H104.952V65.5909C104.967 67.6515 105.52 69.2803 106.611 70.4773C107.702 71.6742 109.164 72.2727 110.997 72.2727C112.164 72.2727 113.255 72.0076 114.27 71.4773C115.285 70.9318 116.103 70.1288 116.724 69.0682C117.361 68.0076 117.671 66.697 117.656 65.1364ZM150.855 80.6818C147.279 80.6818 144.204 79.9242 141.628 78.4091C139.067 76.8788 137.098 74.7576 135.719 72.0455C134.355 69.3333 133.673 66.2121 133.673 62.6818C133.673 59.1061 134.363 55.9697 135.741 53.2727C137.135 50.5606 139.113 48.447 141.673 46.9318C144.234 45.4015 147.279 44.6364 150.81 44.6364C153.855 44.6364 156.522 45.1894 158.81 46.2955C161.098 47.4015 162.908 48.9545 164.241 50.9545C165.575 52.9545 166.31 55.303 166.446 58H157.31C157.052 56.2576 156.37 54.8561 155.264 53.7955C154.173 52.7197 152.741 52.1818 150.969 52.1818C149.469 52.1818 148.158 52.5909 147.037 53.4091C145.931 54.2121 145.067 55.3864 144.446 56.9318C143.825 58.4773 143.514 60.3485 143.514 62.5455C143.514 64.7727 143.817 66.6667 144.423 68.2273C145.045 69.7879 145.916 70.9773 147.037 71.7955C148.158 72.6136 149.469 73.0227 150.969 73.0227C152.075 73.0227 153.067 72.7955 153.946 72.3409C154.84 71.8864 155.575 71.2273 156.151 70.3636C156.741 69.4848 157.128 68.4318 157.31 67.2045H166.446C166.295 69.8712 165.567 72.2197 164.264 74.25C162.976 76.2652 161.196 77.8409 158.923 78.9773C156.651 80.1136 153.961 80.6818 150.855 80.6818ZM188.418 80.6818C184.842 80.6818 181.766 79.9242 179.19 78.4091C176.63 76.8788 174.66 74.7576 173.281 72.0455C171.918 69.3333 171.236 66.2121 171.236 62.6818C171.236 59.1061 171.925 55.9697 173.304 53.2727C174.698 50.5606 176.675 48.447 179.236 46.9318C181.796 45.4015 184.842 44.6364 188.372 44.6364C191.418 44.6364 194.084 45.1894 196.372 46.2955C198.66 47.4015 200.471 48.9545 201.804 50.9545C203.137 52.9545 203.872 55.303 204.009 58H194.872C194.615 56.2576 193.933 54.8561 192.827 53.7955C191.736 52.7197 190.304 52.1818 188.531 52.1818C187.031 52.1818 185.721 52.5909 184.599 53.4091C183.493 54.2121 182.63 55.3864 182.009 56.9318C181.387 58.4773 181.077 60.3485 181.077 62.5455C181.077 64.7727 181.38 66.6667 181.986 68.2273C182.607 69.7879 183.478 70.9773 184.599 71.7955C185.721 72.6136 187.031 73.0227 188.531 73.0227C189.637 73.0227 190.63 72.7955 191.509 72.3409C192.402 71.8864 193.137 71.2273 193.713 70.3636C194.304 69.4848 194.69 68.4318 194.872 67.2045H204.009C203.857 69.8712 203.13 72.2197 201.827 74.25C200.539 76.2652 198.759 77.8409 196.486 78.9773C194.213 80.1136 191.524 80.6818 188.418 80.6818ZM226.116 80.6818C222.526 80.6818 219.435 79.9545 216.844 78.5C214.268 77.0303 212.283 74.9545 210.889 72.2727C209.495 69.5758 208.798 66.3864 208.798 62.7045C208.798 59.1136 209.495 55.9621 210.889 53.25C212.283 50.5379 214.245 48.4242 216.776 46.9091C219.321 45.3939 222.306 44.6364 225.73 44.6364C228.033 44.6364 230.177 45.0076 232.162 45.75C234.162 46.4773 235.904 47.5758 237.389 49.0455C238.889 50.5152 240.056 52.3636 240.889 54.5909C241.723 56.803 242.139 59.3939 242.139 62.3636V65.0227H212.662V59.0227H233.026C233.026 57.6288 232.723 56.3939 232.116 55.3182C231.51 54.2424 230.67 53.4015 229.594 52.7955C228.533 52.1742 227.298 51.8636 225.889 51.8636C224.42 51.8636 223.116 52.2045 221.98 52.8864C220.859 53.553 219.98 54.4545 219.344 55.5909C218.707 56.7121 218.382 57.9621 218.366 59.3409V65.0455C218.366 66.7727 218.685 68.2652 219.321 69.5227C219.973 70.7803 220.889 71.75 222.071 72.4318C223.253 73.1136 224.654 73.4545 226.276 73.4545C227.351 73.4545 228.336 73.303 229.23 73C230.124 72.697 230.889 72.2424 231.526 71.6364C232.162 71.0303 232.647 70.2879 232.98 69.4091L241.935 70C241.48 72.1515 240.548 74.0303 239.139 75.6364C237.745 77.2273 235.942 78.4697 233.73 79.3636C231.533 80.2424 228.995 80.6818 226.116 80.6818ZM264.366 80.6818C260.776 80.6818 257.685 79.9545 255.094 78.5C252.518 77.0303 250.533 74.9545 249.139 72.2727C247.745 69.5758 247.048 66.3864 247.048 62.7045C247.048 59.1136 247.745 55.9621 249.139 53.25C250.533 50.5379 252.495 48.4242 255.026 46.9091C257.571 45.3939 260.556 44.6364 263.98 44.6364C266.283 44.6364 268.427 45.0076 270.412 45.75C272.412 46.4773 274.154 47.5758 275.639 49.0455C277.139 50.5152 278.306 52.3636 279.139 54.5909C279.973 56.803 280.389 59.3939 280.389 62.3636V65.0227H250.912V59.0227H271.276C271.276 57.6288 270.973 56.3939 270.366 55.3182C269.76 54.2424 268.92 53.4015 267.844 52.7955C266.783 52.1742 265.548 51.8636 264.139 51.8636C262.67 51.8636 261.366 52.2045 260.23 52.8864C259.109 53.553 258.23 54.4545 257.594 55.5909C256.957 56.7121 256.632 57.9621 256.616 59.3409V65.0455C256.616 66.7727 256.935 68.2652 257.571 69.5227C258.223 70.7803 259.139 71.75 260.321 72.4318C261.503 73.1136 262.904 73.4545 264.526 73.4545C265.601 73.4545 266.586 73.303 267.48 73C268.374 72.697 269.139 72.2424 269.776 71.6364C270.412 71.0303 270.897 70.2879 271.23 69.4091L280.185 70C279.73 72.1515 278.798 74.0303 277.389 75.6364C275.995 77.2273 274.192 78.4697 271.98 79.3636C269.783 80.2424 267.245 80.6818 264.366 80.6818ZM299.571 80.5682C296.92 80.5682 294.518 79.8864 292.366 78.5227C290.23 77.1439 288.533 75.1212 287.276 72.4545C286.033 69.7727 285.412 66.4848 285.412 62.5909C285.412 58.5909 286.056 55.2652 287.344 52.6136C288.632 49.947 290.344 47.9545 292.48 46.6364C294.632 45.303 296.988 44.6364 299.548 44.6364C301.503 44.6364 303.132 44.9697 304.435 45.6364C305.753 46.2879 306.813 47.1061 307.616 48.0909C308.435 49.0606 309.056 50.0152 309.48 50.9545H309.776V33.4545H319.435V80H309.889V74.4091H309.48C309.026 75.3788 308.382 76.3409 307.548 77.2955C306.73 78.2348 305.662 79.0152 304.344 79.6364C303.041 80.2576 301.45 80.5682 299.571 80.5682ZM302.639 72.8636C304.2 72.8636 305.518 72.4394 306.594 71.5909C307.685 70.7273 308.518 69.5227 309.094 67.9773C309.685 66.4318 309.98 64.6212 309.98 62.5455C309.98 60.4697 309.692 58.6667 309.116 57.1364C308.541 55.6061 307.707 54.4242 306.616 53.5909C305.526 52.7576 304.2 52.3409 302.639 52.3409C301.048 52.3409 299.707 52.7727 298.616 53.6364C297.526 54.5 296.7 55.697 296.139 57.2273C295.579 58.7576 295.298 60.5303 295.298 62.5455C295.298 64.5758 295.579 66.3712 296.139 67.9318C296.715 69.4773 297.541 70.6894 298.616 71.5682C299.707 72.4318 301.048 72.8636 302.639 72.8636Z" fill="white"/>
<path d="M372 58.6608C372 77.7061 367.878 88.7173 360.8 95.4219C353.584 102.257 342.266 105.635 325.388 106.864C310.628 107.938 292.543 107.329 270.724 106.594C267.688 106.492 264.58 106.387 261.398 106.284C235.484 105.446 205.049 104.747 170.13 106.578C168.048 106.687 165.987 106.796 163.945 106.903C131.889 108.589 104.762 110.016 82.3288 110C58.3677 109.983 40.3809 108.306 27.7624 103.858C15.4914 99.5325 8.75682 92.7908 6.20065 82.4083C3.49698 71.4266 5.26122 55.623 12.4567 32.9122C15.1307 24.4721 21.4983 18.3934 31.47 14.038C41.5577 9.63198 54.9147 7.19717 70.6031 5.99999C91.1259 4.4339 114.604 5.02031 138.686 5.6218C151.632 5.94514 164.753 6.27285 177.682 6.27285C182.443 6.27285 187.416 6.25277 192.554 6.23203C226.996 6.09301 268.866 5.92401 303.863 11.5695C323.987 14.8158 341.273 19.909 353.41 27.658C365.319 35.2614 372 45.1919 372 58.6608Z" stroke="#00FF0A" stroke-width="10"/>
</svg>
