<svg width="454" height="533" viewBox="0 0 454 533" fill="none" xmlns="http://www.w3.org/2000/svg">
<rect x="13" width="440" height="533" fill="#1A1A1E"/>
<path d="M134.091 43H128.159L137.198 16.8182H144.331L153.357 43H147.425L140.867 22.8011H140.662L134.091 43ZM133.72 32.7088H147.732V37.0298H133.72V32.7088ZM156.406 50.3636V23.3636H161.775V26.6619H162.018C162.257 26.1335 162.602 25.5966 163.053 25.0511C163.514 24.4972 164.11 24.0369 164.843 23.6705C165.585 23.2955 166.505 23.108 167.605 23.108C169.036 23.108 170.357 23.483 171.568 24.233C172.778 24.9744 173.745 26.0952 174.47 27.5952C175.194 29.0866 175.556 30.9574 175.556 33.2074C175.556 35.3977 175.203 37.2472 174.495 38.7557C173.796 40.2557 172.842 41.3935 171.632 42.169C170.43 42.9361 169.083 43.3196 167.592 43.3196C166.535 43.3196 165.636 43.1449 164.894 42.7955C164.161 42.446 163.561 42.0071 163.092 41.4787C162.623 40.9418 162.265 40.4006 162.018 39.8551H161.852V50.3636H156.406ZM161.737 33.1818C161.737 34.3494 161.899 35.3679 162.222 36.2372C162.546 37.1065 163.015 37.7841 163.629 38.2699C164.242 38.7472 164.988 38.9858 165.866 38.9858C166.752 38.9858 167.502 38.7429 168.116 38.2571C168.73 37.7628 169.194 37.081 169.509 36.2116C169.833 35.3338 169.995 34.3239 169.995 33.1818C169.995 32.0483 169.838 31.0511 169.522 30.1903C169.207 29.3295 168.742 28.6562 168.129 28.1705C167.515 27.6847 166.761 27.4418 165.866 27.4418C164.98 27.4418 164.23 27.6761 163.616 28.1449C163.011 28.6136 162.546 29.2784 162.222 30.1392C161.899 31 161.737 32.0142 161.737 33.1818ZM179.187 50.3636V23.3636H184.556V26.6619H184.799C185.038 26.1335 185.383 25.5966 185.835 25.0511C186.295 24.4972 186.892 24.0369 187.624 23.6705C188.366 23.2955 189.286 23.108 190.386 23.108C191.818 23.108 193.139 23.483 194.349 24.233C195.559 24.9744 196.526 26.0952 197.251 27.5952C197.975 29.0866 198.338 30.9574 198.338 33.2074C198.338 35.3977 197.984 37.2472 197.276 38.7557C196.578 40.2557 195.623 41.3935 194.413 42.169C193.211 42.9361 191.865 43.3196 190.373 43.3196C189.316 43.3196 188.417 43.1449 187.676 42.7955C186.943 42.446 186.342 42.0071 185.873 41.4787C185.404 40.9418 185.046 40.4006 184.799 39.8551H184.633V50.3636H179.187ZM184.518 33.1818C184.518 34.3494 184.68 35.3679 185.004 36.2372C185.328 37.1065 185.796 37.7841 186.41 38.2699C187.024 38.7472 187.769 38.9858 188.647 38.9858C189.534 38.9858 190.284 38.7429 190.897 38.2571C191.511 37.7628 191.975 37.081 192.291 36.2116C192.615 35.3338 192.776 34.3239 192.776 33.1818C192.776 32.0483 192.619 31.0511 192.303 30.1903C191.988 29.3295 191.524 28.6562 190.91 28.1705C190.296 27.6847 189.542 27.4418 188.647 27.4418C187.761 27.4418 187.011 27.6761 186.397 28.1449C185.792 28.6136 185.328 29.2784 185.004 30.1392C184.68 31 184.518 32.0142 184.518 33.1818ZM207.414 16.8182V43H201.968V16.8182H207.414ZM215.139 50.3636C214.449 50.3636 213.801 50.3082 213.196 50.1974C212.599 50.0952 212.105 49.9631 211.713 49.8011L212.94 45.7358C213.579 45.9318 214.155 46.0384 214.666 46.0554C215.186 46.0724 215.633 45.9531 216.008 45.6974C216.392 45.4418 216.703 45.0071 216.942 44.3935L217.261 43.5625L210.217 23.3636H215.944L220.01 37.7841H220.214L224.318 23.3636H230.084L222.452 45.1222C222.085 46.179 221.586 47.0994 220.956 47.8835C220.334 48.6761 219.545 49.2855 218.591 49.7116C217.636 50.1463 216.486 50.3636 215.139 50.3636Z" fill="white"/>
<path d="M301.347 108.818L307.676 128.71H307.919L314.259 108.818H320.396L311.37 135H304.237L295.198 108.818H301.347ZM326.865 135.371C325.612 135.371 324.495 135.153 323.515 134.719C322.535 134.276 321.759 133.624 321.188 132.763C320.626 131.893 320.345 130.811 320.345 129.516C320.345 128.425 320.545 127.509 320.945 126.767C321.346 126.026 321.892 125.429 322.582 124.977C323.272 124.526 324.056 124.185 324.934 123.955C325.82 123.724 326.749 123.562 327.721 123.469C328.863 123.349 329.784 123.239 330.482 123.136C331.181 123.026 331.688 122.864 332.004 122.651C332.319 122.437 332.477 122.122 332.477 121.705V121.628C332.477 120.818 332.221 120.192 331.71 119.749C331.207 119.305 330.491 119.084 329.562 119.084C328.582 119.084 327.802 119.301 327.222 119.736C326.643 120.162 326.259 120.699 326.072 121.347L321.035 120.938C321.291 119.744 321.794 118.713 322.544 117.844C323.294 116.966 324.261 116.293 325.445 115.824C326.639 115.347 328.019 115.108 329.588 115.108C330.678 115.108 331.722 115.236 332.72 115.491C333.725 115.747 334.616 116.143 335.392 116.68C336.176 117.217 336.794 117.908 337.245 118.751C337.697 119.587 337.923 120.588 337.923 121.756V135H332.758V132.277H332.605C332.289 132.891 331.867 133.432 331.339 133.901C330.811 134.361 330.176 134.723 329.434 134.987C328.693 135.243 327.836 135.371 326.865 135.371ZM328.424 131.612C329.225 131.612 329.933 131.455 330.546 131.139C331.16 130.815 331.642 130.381 331.991 129.835C332.34 129.29 332.515 128.672 332.515 127.982V125.898C332.345 126.009 332.11 126.111 331.812 126.205C331.522 126.29 331.194 126.371 330.828 126.447C330.461 126.516 330.095 126.58 329.728 126.639C329.362 126.69 329.029 126.737 328.731 126.78C328.092 126.874 327.534 127.023 327.056 127.227C326.579 127.432 326.208 127.709 325.944 128.058C325.68 128.399 325.548 128.825 325.548 129.337C325.548 130.078 325.816 130.645 326.353 131.037C326.899 131.42 327.589 131.612 328.424 131.612ZM347.594 108.818V135H342.148V108.818H347.594ZM351.956 135V115.364H357.403V135H351.956ZM354.692 112.832C353.883 112.832 353.188 112.564 352.608 112.027C352.037 111.482 351.752 110.83 351.752 110.071C351.752 109.321 352.037 108.678 352.608 108.141C353.188 107.595 353.883 107.322 354.692 107.322C355.502 107.322 356.192 107.595 356.763 108.141C357.343 108.678 357.633 109.321 357.633 110.071C357.633 110.83 357.343 111.482 356.763 112.027C356.192 112.564 355.502 112.832 354.692 112.832ZM369.001 135.32C367.509 135.32 366.159 134.936 364.948 134.169C363.747 133.393 362.792 132.256 362.085 130.756C361.386 129.247 361.036 127.398 361.036 125.207C361.036 122.957 361.399 121.087 362.123 119.595C362.847 118.095 363.811 116.974 365.012 116.233C366.222 115.483 367.548 115.108 368.988 115.108C370.088 115.108 371.004 115.295 371.737 115.67C372.478 116.037 373.075 116.497 373.526 117.051C373.987 117.597 374.336 118.134 374.575 118.662H374.741V108.818H380.174V135H374.805V131.855H374.575C374.319 132.401 373.957 132.942 373.488 133.479C373.028 134.007 372.427 134.446 371.686 134.795C370.953 135.145 370.058 135.32 369.001 135.32ZM370.727 130.986C371.605 130.986 372.346 130.747 372.951 130.27C373.565 129.784 374.034 129.107 374.357 128.237C374.69 127.368 374.856 126.349 374.856 125.182C374.856 124.014 374.694 123 374.37 122.139C374.046 121.278 373.578 120.614 372.964 120.145C372.35 119.676 371.605 119.442 370.727 119.442C369.832 119.442 369.078 119.685 368.464 120.17C367.85 120.656 367.386 121.33 367.07 122.19C366.755 123.051 366.597 124.048 366.597 125.182C366.597 126.324 366.755 127.334 367.07 128.212C367.394 129.081 367.859 129.763 368.464 130.257C369.078 130.743 369.832 130.986 370.727 130.986ZM390.251 135.371C388.998 135.371 387.882 135.153 386.902 134.719C385.922 134.276 385.146 133.624 384.575 132.763C384.013 131.893 383.731 130.811 383.731 129.516C383.731 128.425 383.932 127.509 384.332 126.767C384.733 126.026 385.278 125.429 385.969 124.977C386.659 124.526 387.443 124.185 388.321 123.955C389.207 123.724 390.136 123.562 391.108 123.469C392.25 123.349 393.17 123.239 393.869 123.136C394.568 123.026 395.075 122.864 395.39 122.651C395.706 122.437 395.863 122.122 395.863 121.705V121.628C395.863 120.818 395.608 120.192 395.096 119.749C394.594 119.305 393.878 119.084 392.949 119.084C391.969 119.084 391.189 119.301 390.609 119.736C390.03 120.162 389.646 120.699 389.459 121.347L384.422 120.938C384.677 119.744 385.18 118.713 385.93 117.844C386.68 116.966 387.648 116.293 388.832 115.824C390.025 115.347 391.406 115.108 392.974 115.108C394.065 115.108 395.109 115.236 396.106 115.491C397.112 115.747 398.003 116.143 398.778 116.68C399.562 117.217 400.18 117.908 400.632 118.751C401.084 119.587 401.309 120.588 401.309 121.756V135H396.145V132.277H395.991C395.676 132.891 395.254 133.432 394.726 133.901C394.197 134.361 393.562 134.723 392.821 134.987C392.079 135.243 391.223 135.371 390.251 135.371ZM391.811 131.612C392.612 131.612 393.319 131.455 393.933 131.139C394.547 130.815 395.028 130.381 395.378 129.835C395.727 129.29 395.902 128.672 395.902 127.982V125.898C395.731 126.009 395.497 126.111 395.199 126.205C394.909 126.29 394.581 126.371 394.214 126.447C393.848 126.516 393.481 126.58 393.115 126.639C392.748 126.69 392.416 126.737 392.118 126.78C391.479 126.874 390.92 127.023 390.443 127.227C389.966 127.432 389.595 127.709 389.331 128.058C389.067 128.399 388.934 128.825 388.934 129.337C388.934 130.078 389.203 130.645 389.74 131.037C390.285 131.42 390.976 131.612 391.811 131.612ZM415.979 115.364V119.455H404.154V115.364H415.979ZM406.839 110.659H412.285V128.966C412.285 129.469 412.361 129.861 412.515 130.142C412.668 130.415 412.881 130.607 413.154 130.717C413.435 130.828 413.759 130.884 414.126 130.884C414.381 130.884 414.637 130.862 414.893 130.82C415.148 130.768 415.344 130.73 415.481 130.705L416.337 134.757C416.064 134.842 415.681 134.94 415.187 135.051C414.692 135.17 414.091 135.243 413.384 135.268C412.072 135.32 410.921 135.145 409.932 134.744C408.952 134.344 408.189 133.722 407.644 132.878C407.099 132.034 406.83 130.969 406.839 129.682V110.659ZM428.265 135.384C426.245 135.384 424.506 134.974 423.049 134.156C421.6 133.33 420.483 132.162 419.699 130.653C418.915 129.136 418.523 127.342 418.523 125.271C418.523 123.251 418.915 121.479 419.699 119.953C420.483 118.428 421.587 117.239 423.01 116.386C424.442 115.534 426.121 115.108 428.047 115.108C429.343 115.108 430.549 115.317 431.665 115.734C432.79 116.143 433.77 116.761 434.606 117.588C435.449 118.415 436.106 119.455 436.574 120.707C437.043 121.952 437.278 123.409 437.278 125.08V126.575H420.697V123.2H432.151C432.151 122.416 431.981 121.722 431.64 121.116C431.299 120.511 430.826 120.038 430.221 119.697C429.624 119.348 428.93 119.173 428.137 119.173C427.31 119.173 426.577 119.365 425.938 119.749C425.307 120.124 424.813 120.631 424.455 121.27C424.097 121.901 423.914 122.604 423.905 123.379V126.588C423.905 127.56 424.084 128.399 424.442 129.107C424.809 129.814 425.324 130.359 425.989 130.743C426.654 131.126 427.442 131.318 428.354 131.318C428.959 131.318 429.513 131.233 430.016 131.062C430.519 130.892 430.949 130.636 431.307 130.295C431.665 129.955 431.938 129.537 432.126 129.043L437.162 129.375C436.907 130.585 436.383 131.642 435.59 132.545C434.806 133.44 433.792 134.139 432.547 134.642C431.312 135.136 429.884 135.384 428.265 135.384Z" fill="white"/>
<path d="M124.686 209.818V236H119.151V209.818H124.686ZM134.584 224.648V236H129.138V216.364H134.328V219.828H134.559C134.993 218.686 135.722 217.783 136.745 217.118C137.767 216.445 139.007 216.108 140.465 216.108C141.828 216.108 143.017 216.406 144.032 217.003C145.046 217.599 145.834 218.452 146.397 219.56C146.959 220.659 147.24 221.972 147.24 223.497V236H141.794V224.469C141.803 223.267 141.496 222.33 140.874 221.656C140.252 220.974 139.395 220.634 138.304 220.634C137.571 220.634 136.924 220.791 136.361 221.107C135.807 221.422 135.373 221.882 135.057 222.487C134.75 223.084 134.593 223.804 134.584 224.648ZM158.97 214.382V209.818H180.473V214.382H172.457V236H166.985V214.382H158.97ZM190.013 236.384C187.993 236.384 186.254 235.974 184.797 235.156C183.348 234.33 182.232 233.162 181.447 231.653C180.663 230.136 180.271 228.342 180.271 226.271C180.271 224.251 180.663 222.479 181.447 220.953C182.232 219.428 183.335 218.239 184.759 217.386C186.19 216.534 187.869 216.108 189.795 216.108C191.091 216.108 192.297 216.317 193.413 216.734C194.538 217.143 195.518 217.761 196.354 218.588C197.197 219.415 197.854 220.455 198.322 221.707C198.791 222.952 199.026 224.409 199.026 226.08V227.575H182.445V224.2H193.899C193.899 223.416 193.729 222.722 193.388 222.116C193.047 221.511 192.574 221.038 191.969 220.697C191.372 220.348 190.678 220.173 189.885 220.173C189.058 220.173 188.325 220.365 187.686 220.749C187.055 221.124 186.561 221.631 186.203 222.27C185.845 222.901 185.662 223.604 185.653 224.379V227.588C185.653 228.56 185.832 229.399 186.19 230.107C186.557 230.814 187.072 231.359 187.737 231.743C188.402 232.126 189.19 232.318 190.102 232.318C190.707 232.318 191.261 232.233 191.764 232.062C192.267 231.892 192.697 231.636 193.055 231.295C193.413 230.955 193.686 230.537 193.874 230.043L198.911 230.375C198.655 231.585 198.131 232.642 197.338 233.545C196.554 234.44 195.54 235.139 194.295 235.642C193.06 236.136 191.632 236.384 190.013 236.384ZM208.179 236.371C206.926 236.371 205.81 236.153 204.83 235.719C203.849 235.276 203.074 234.624 202.503 233.763C201.94 232.893 201.659 231.811 201.659 230.516C201.659 229.425 201.859 228.509 202.26 227.767C202.661 227.026 203.206 226.429 203.896 225.977C204.587 225.526 205.371 225.185 206.249 224.955C207.135 224.724 208.064 224.562 209.036 224.469C210.178 224.349 211.098 224.239 211.797 224.136C212.496 224.026 213.003 223.864 213.318 223.651C213.634 223.437 213.791 223.122 213.791 222.705V222.628C213.791 221.818 213.536 221.192 213.024 220.749C212.521 220.305 211.805 220.084 210.876 220.084C209.896 220.084 209.116 220.301 208.537 220.736C207.957 221.162 207.574 221.699 207.386 222.347L202.349 221.938C202.605 220.744 203.108 219.713 203.858 218.844C204.608 217.966 205.575 217.293 206.76 216.824C207.953 216.347 209.334 216.108 210.902 216.108C211.993 216.108 213.037 216.236 214.034 216.491C215.04 216.747 215.93 217.143 216.706 217.68C217.49 218.217 218.108 218.908 218.56 219.751C219.011 220.587 219.237 221.588 219.237 222.756V236H214.072V233.277H213.919C213.604 233.891 213.182 234.432 212.653 234.901C212.125 235.361 211.49 235.723 210.749 235.987C210.007 236.243 209.151 236.371 208.179 236.371ZM209.739 232.612C210.54 232.612 211.247 232.455 211.861 232.139C212.474 231.815 212.956 231.381 213.305 230.835C213.655 230.29 213.83 229.672 213.83 228.982V226.898C213.659 227.009 213.425 227.111 213.126 227.205C212.837 227.29 212.509 227.371 212.142 227.447C211.776 227.516 211.409 227.58 211.043 227.639C210.676 227.69 210.344 227.737 210.045 227.78C209.406 227.874 208.848 228.023 208.371 228.227C207.893 228.432 207.523 228.709 207.259 229.058C206.994 229.399 206.862 229.825 206.862 230.337C206.862 231.078 207.131 231.645 207.668 232.037C208.213 232.42 208.903 232.612 209.739 232.612ZM223.462 236V216.364H228.653V219.828H228.883C229.292 218.678 229.974 217.77 230.928 217.105C231.883 216.44 233.025 216.108 234.354 216.108C235.701 216.108 236.847 216.445 237.793 217.118C238.739 217.783 239.37 218.686 239.685 219.828H239.89C240.29 218.703 241.015 217.804 242.063 217.131C243.12 216.449 244.369 216.108 245.809 216.108C247.641 216.108 249.129 216.692 250.271 217.859C251.421 219.018 251.996 220.663 251.996 222.794V236H246.563V223.868C246.563 222.777 246.273 221.959 245.694 221.413C245.114 220.868 244.39 220.595 243.521 220.595C242.532 220.595 241.761 220.911 241.207 221.541C240.653 222.163 240.376 222.986 240.376 224.009V236H235.096V223.753C235.096 222.79 234.819 222.023 234.265 221.452C233.719 220.881 232.999 220.595 232.104 220.595C231.499 220.595 230.954 220.749 230.468 221.055C229.991 221.354 229.612 221.776 229.33 222.321C229.049 222.858 228.908 223.489 228.908 224.213V236H223.462Z" fill="white"/>
<path d="M324.426 332V305.818H334.909C336.835 305.818 338.442 306.104 339.729 306.675C341.015 307.246 341.983 308.038 342.631 309.053C343.278 310.058 343.602 311.217 343.602 312.53C343.602 313.553 343.398 314.452 342.988 315.227C342.579 315.994 342.017 316.625 341.301 317.119C340.594 317.605 339.784 317.95 338.872 318.155V318.411C339.869 318.453 340.802 318.734 341.672 319.254C342.55 319.774 343.261 320.503 343.807 321.44C344.352 322.369 344.625 323.477 344.625 324.764C344.625 326.153 344.28 327.393 343.589 328.484C342.907 329.567 341.898 330.423 340.559 331.054C339.221 331.685 337.572 332 335.612 332H324.426ZM329.961 327.474H334.474C336.017 327.474 337.142 327.18 337.849 326.592C338.557 325.996 338.91 325.203 338.91 324.214C338.91 323.49 338.736 322.851 338.386 322.297C338.037 321.743 337.538 321.308 336.89 320.993C336.251 320.678 335.488 320.52 334.602 320.52H329.961V327.474ZM329.961 316.774H334.065C334.824 316.774 335.497 316.642 336.085 316.378C336.682 316.105 337.15 315.722 337.491 315.227C337.841 314.733 338.015 314.141 338.015 313.45C338.015 312.504 337.679 311.741 337.006 311.162C336.341 310.582 335.395 310.293 334.167 310.293H329.961V316.774ZM360.717 323.639V312.364H366.163V332H360.934V328.433H360.73C360.286 329.584 359.549 330.509 358.518 331.207C357.495 331.906 356.247 332.256 354.772 332.256C353.46 332.256 352.305 331.957 351.308 331.361C350.311 330.764 349.531 329.916 348.968 328.817C348.414 327.717 348.133 326.401 348.124 324.866V312.364H353.57V323.895C353.579 325.054 353.89 325.97 354.504 326.643C355.117 327.317 355.94 327.653 356.971 327.653C357.627 327.653 358.241 327.504 358.812 327.206C359.383 326.899 359.843 326.447 360.193 325.851C360.551 325.254 360.725 324.517 360.717 323.639ZM370.519 332V312.364H375.965V332H370.519ZM373.255 309.832C372.445 309.832 371.751 309.564 371.171 309.027C370.6 308.482 370.314 307.83 370.314 307.071C370.314 306.321 370.6 305.678 371.171 305.141C371.751 304.595 372.445 304.322 373.255 304.322C374.064 304.322 374.755 304.595 375.326 305.141C375.905 305.678 376.195 306.321 376.195 307.071C376.195 307.83 375.905 308.482 375.326 309.027C374.755 309.564 374.064 309.832 373.255 309.832ZM385.774 305.818V332H380.328V305.818H385.774ZM397.372 332.32C395.881 332.32 394.53 331.936 393.319 331.169C392.118 330.393 391.163 329.256 390.456 327.756C389.757 326.247 389.407 324.398 389.407 322.207C389.407 319.957 389.77 318.087 390.494 316.595C391.219 315.095 392.182 313.974 393.383 313.233C394.594 312.483 395.919 312.108 397.359 312.108C398.459 312.108 399.375 312.295 400.108 312.67C400.849 313.037 401.446 313.497 401.898 314.051C402.358 314.597 402.707 315.134 402.946 315.662H403.112V305.818H408.545V332H403.176V328.855H402.946C402.69 329.401 402.328 329.942 401.859 330.479C401.399 331.007 400.798 331.446 400.057 331.795C399.324 332.145 398.429 332.32 397.372 332.32ZM399.098 327.986C399.976 327.986 400.717 327.747 401.322 327.27C401.936 326.784 402.405 326.107 402.729 325.237C403.061 324.368 403.227 323.349 403.227 322.182C403.227 321.014 403.065 320 402.741 319.139C402.417 318.278 401.949 317.614 401.335 317.145C400.721 316.676 399.976 316.442 399.098 316.442C398.203 316.442 397.449 316.685 396.835 317.17C396.221 317.656 395.757 318.33 395.442 319.19C395.126 320.051 394.969 321.048 394.969 322.182C394.969 323.324 395.126 324.334 395.442 325.212C395.765 326.081 396.23 326.763 396.835 327.257C397.449 327.743 398.203 327.986 399.098 327.986Z" fill="white"/>
<path d="M281.899 491.348C281.796 490.317 281.357 489.516 280.582 488.945C279.806 488.374 278.754 488.088 277.424 488.088C276.521 488.088 275.758 488.216 275.136 488.472C274.514 488.719 274.036 489.064 273.704 489.507C273.38 489.95 273.218 490.453 273.218 491.016C273.201 491.484 273.299 491.893 273.512 492.243C273.734 492.592 274.036 492.895 274.42 493.151C274.803 493.398 275.247 493.615 275.749 493.803C276.252 493.982 276.789 494.135 277.36 494.263L279.713 494.825C280.855 495.081 281.903 495.422 282.857 495.848C283.812 496.274 284.639 496.798 285.338 497.42C286.036 498.043 286.578 498.776 286.961 499.619C287.353 500.463 287.553 501.43 287.562 502.521C287.553 504.124 287.144 505.513 286.335 506.689C285.534 507.857 284.374 508.764 282.857 509.412C281.349 510.051 279.529 510.371 277.399 510.371C275.285 510.371 273.444 510.047 271.876 509.399C270.316 508.751 269.097 507.793 268.22 506.523C267.35 505.244 266.894 503.663 266.852 501.78H272.208C272.268 502.658 272.519 503.391 272.963 503.979C273.414 504.558 274.015 504.997 274.765 505.295C275.524 505.585 276.38 505.73 277.335 505.73C278.272 505.73 279.086 505.594 279.776 505.321C280.475 505.048 281.017 504.669 281.4 504.183C281.784 503.697 281.975 503.139 281.975 502.509C281.975 501.92 281.801 501.426 281.451 501.026C281.11 500.625 280.607 500.284 279.943 500.003C279.286 499.722 278.481 499.466 277.526 499.236L274.676 498.52C272.468 497.983 270.725 497.143 269.447 496.001C268.169 494.859 267.534 493.321 267.542 491.386C267.534 489.801 267.955 488.416 268.808 487.232C269.669 486.047 270.849 485.122 272.349 484.457C273.849 483.793 275.553 483.46 277.463 483.46C279.406 483.46 281.102 483.793 282.551 484.457C284.008 485.122 285.142 486.047 285.951 487.232C286.761 488.416 287.178 489.788 287.204 491.348H281.899ZM303.775 501.639V490.364H309.221V510H303.993V506.433H303.788C303.345 507.584 302.608 508.509 301.577 509.207C300.554 509.906 299.305 510.256 297.831 510.256C296.518 510.256 295.363 509.957 294.366 509.361C293.369 508.764 292.589 507.916 292.027 506.817C291.473 505.717 291.192 504.401 291.183 502.866V490.364H296.629V501.895C296.638 503.054 296.949 503.97 297.562 504.643C298.176 505.317 298.998 505.653 300.03 505.653C300.686 505.653 301.3 505.504 301.871 505.206C302.442 504.899 302.902 504.447 303.251 503.851C303.609 503.254 303.784 502.517 303.775 501.639ZM322.45 510.384C320.438 510.384 318.708 509.957 317.259 509.105C315.819 508.244 314.711 507.051 313.936 505.526C313.169 504 312.785 502.244 312.785 500.259C312.785 498.247 313.173 496.483 313.948 494.966C314.732 493.44 315.845 492.251 317.285 491.399C318.725 490.538 320.438 490.108 322.424 490.108C324.137 490.108 325.637 490.419 326.924 491.041C328.211 491.663 329.23 492.537 329.98 493.662C330.73 494.787 331.143 496.108 331.22 497.625H326.08C325.936 496.645 325.552 495.857 324.93 495.26C324.316 494.655 323.511 494.352 322.514 494.352C321.67 494.352 320.933 494.582 320.302 495.043C319.68 495.494 319.194 496.155 318.845 497.024C318.495 497.893 318.32 498.946 318.32 500.182C318.32 501.435 318.491 502.5 318.832 503.378C319.181 504.256 319.671 504.925 320.302 505.385C320.933 505.845 321.67 506.075 322.514 506.075C323.136 506.075 323.694 505.947 324.188 505.692C324.691 505.436 325.105 505.065 325.428 504.58C325.761 504.085 325.978 503.493 326.08 502.803H331.22C331.134 504.303 330.725 505.624 329.992 506.766C329.268 507.899 328.267 508.786 326.988 509.425C325.71 510.064 324.197 510.384 322.45 510.384ZM343.579 510.384C341.567 510.384 339.837 509.957 338.388 509.105C336.948 508.244 335.84 507.051 335.064 505.526C334.297 504 333.914 502.244 333.914 500.259C333.914 498.247 334.302 496.483 335.077 494.966C335.861 493.44 336.974 492.251 338.414 491.399C339.854 490.538 341.567 490.108 343.553 490.108C345.266 490.108 346.766 490.419 348.053 491.041C349.34 491.663 350.358 492.537 351.108 493.662C351.858 494.787 352.272 496.108 352.349 497.625H347.209C347.064 496.645 346.681 495.857 346.059 495.26C345.445 494.655 344.64 494.352 343.643 494.352C342.799 494.352 342.062 494.582 341.431 495.043C340.809 495.494 340.323 496.155 339.974 497.024C339.624 497.893 339.449 498.946 339.449 500.182C339.449 501.435 339.62 502.5 339.961 503.378C340.31 504.256 340.8 504.925 341.431 505.385C342.062 505.845 342.799 506.075 343.643 506.075C344.265 506.075 344.823 505.947 345.317 505.692C345.82 505.436 346.233 505.065 346.557 504.58C346.89 504.085 347.107 503.493 347.209 502.803H352.349C352.263 504.303 351.854 505.624 351.121 506.766C350.397 507.899 349.395 508.786 348.117 509.425C346.839 510.064 345.326 510.384 343.579 510.384ZM364.784 510.384C362.764 510.384 361.026 509.974 359.568 509.156C358.119 508.33 357.003 507.162 356.219 505.653C355.435 504.136 355.043 502.342 355.043 500.271C355.043 498.251 355.435 496.479 356.219 494.953C357.003 493.428 358.107 492.239 359.53 491.386C360.962 490.534 362.641 490.108 364.567 490.108C365.862 490.108 367.068 490.317 368.185 490.734C369.31 491.143 370.29 491.761 371.125 492.588C371.969 493.415 372.625 494.455 373.094 495.707C373.563 496.952 373.797 498.409 373.797 500.08V501.575H357.216V498.2H368.671C368.671 497.416 368.5 496.722 368.159 496.116C367.818 495.511 367.345 495.038 366.74 494.697C366.144 494.348 365.449 494.173 364.656 494.173C363.83 494.173 363.097 494.365 362.458 494.749C361.827 495.124 361.333 495.631 360.975 496.27C360.617 496.901 360.433 497.604 360.425 498.379V501.588C360.425 502.56 360.604 503.399 360.962 504.107C361.328 504.814 361.844 505.359 362.509 505.743C363.173 506.126 363.962 506.318 364.874 506.318C365.479 506.318 366.033 506.233 366.536 506.062C367.039 505.892 367.469 505.636 367.827 505.295C368.185 504.955 368.458 504.537 368.645 504.043L373.682 504.375C373.426 505.585 372.902 506.642 372.11 507.545C371.325 508.44 370.311 509.139 369.067 509.642C367.831 510.136 366.404 510.384 364.784 510.384ZM386.3 510.384C384.28 510.384 382.541 509.974 381.084 509.156C379.635 508.33 378.519 507.162 377.735 505.653C376.95 504.136 376.558 502.342 376.558 500.271C376.558 498.251 376.95 496.479 377.735 494.953C378.519 493.428 379.622 492.239 381.046 491.386C382.477 490.534 384.156 490.108 386.083 490.108C387.378 490.108 388.584 490.317 389.7 490.734C390.825 491.143 391.806 491.761 392.641 492.588C393.485 493.415 394.141 494.455 394.61 495.707C395.078 496.952 395.313 498.409 395.313 500.08V501.575H378.732V498.2H390.186C390.186 497.416 390.016 496.722 389.675 496.116C389.334 495.511 388.861 495.038 388.256 494.697C387.659 494.348 386.965 494.173 386.172 494.173C385.345 494.173 384.612 494.365 383.973 494.749C383.343 495.124 382.848 495.631 382.49 496.27C382.132 496.901 381.949 497.604 381.941 498.379V501.588C381.941 502.56 382.119 503.399 382.477 504.107C382.844 504.814 383.36 505.359 384.024 505.743C384.689 506.126 385.477 506.318 386.389 506.318C386.994 506.318 387.548 506.233 388.051 506.062C388.554 505.892 388.985 505.636 389.343 505.295C389.7 504.955 389.973 504.537 390.161 504.043L395.198 504.375C394.942 505.585 394.418 506.642 393.625 507.545C392.841 508.44 391.827 509.139 390.583 509.642C389.347 510.136 387.919 510.384 386.3 510.384ZM406.102 510.32C404.611 510.32 403.26 509.936 402.05 509.169C400.848 508.393 399.894 507.256 399.186 505.756C398.487 504.247 398.138 502.398 398.138 500.207C398.138 497.957 398.5 496.087 399.225 494.595C399.949 493.095 400.912 491.974 402.114 491.233C403.324 490.483 404.649 490.108 406.09 490.108C407.189 490.108 408.105 490.295 408.838 490.67C409.58 491.037 410.176 491.497 410.628 492.051C411.088 492.597 411.438 493.134 411.676 493.662H411.843V483.818H417.276V510H411.906V506.855H411.676C411.421 507.401 411.058 507.942 410.59 508.479C410.129 509.007 409.529 509.446 408.787 509.795C408.054 510.145 407.159 510.32 406.102 510.32ZM407.828 505.986C408.706 505.986 409.448 505.747 410.053 505.27C410.666 504.784 411.135 504.107 411.459 503.237C411.791 502.368 411.958 501.349 411.958 500.182C411.958 499.014 411.796 498 411.472 497.139C411.148 496.278 410.679 495.614 410.066 495.145C409.452 494.676 408.706 494.442 407.828 494.442C406.933 494.442 406.179 494.685 405.566 495.17C404.952 495.656 404.487 496.33 404.172 497.19C403.857 498.051 403.699 499.048 403.699 500.182C403.699 501.324 403.857 502.334 404.172 503.212C404.496 504.081 404.96 504.763 405.566 505.257C406.179 505.743 406.933 505.986 407.828 505.986Z" fill="white"/>
<path d="M26.7775 424V397.818H37.1071C39.0843 397.818 40.7718 398.172 42.1696 398.879C43.5758 399.578 44.6454 400.571 45.3784 401.858C46.1199 403.136 46.4906 404.641 46.4906 406.371C46.4906 408.109 46.1156 409.605 45.3656 410.858C44.6156 412.102 43.5289 413.057 42.1056 413.722C40.6909 414.386 38.9778 414.719 36.9664 414.719H30.0502V410.27H36.0716C37.1284 410.27 38.0062 410.125 38.7051 409.835C39.4039 409.545 39.9238 409.111 40.2647 408.531C40.6142 407.952 40.7889 407.232 40.7889 406.371C40.7889 405.501 40.6142 404.768 40.2647 404.172C39.9238 403.575 39.3997 403.124 38.6923 402.817C37.9934 402.501 37.1113 402.344 36.046 402.344H32.313V424H26.7775ZM40.9167 412.085L47.4238 424H41.313L34.9466 412.085H40.9167ZM58.9327 424.384C56.9128 424.384 55.1742 423.974 53.7168 423.156C52.2679 422.33 51.1515 421.162 50.3674 419.653C49.5833 418.136 49.1912 416.342 49.1912 414.271C49.1912 412.251 49.5833 410.479 50.3674 408.953C51.1515 407.428 52.2551 406.239 53.6784 405.386C55.1103 404.534 56.7892 404.108 58.7154 404.108C60.0108 404.108 61.2168 404.317 62.3333 404.734C63.4583 405.143 64.4384 405.761 65.2736 406.588C66.1174 407.415 66.7736 408.455 67.2424 409.707C67.7111 410.952 67.9455 412.409 67.9455 414.08V415.575H51.3645V412.2H62.8191C62.8191 411.416 62.6486 410.722 62.3077 410.116C61.9668 409.511 61.4938 409.038 60.8887 408.697C60.2921 408.348 59.5975 408.173 58.8049 408.173C57.9782 408.173 57.2452 408.365 56.606 408.749C55.9753 409.124 55.481 409.631 55.123 410.27C54.7651 410.901 54.5819 411.604 54.5733 412.379V415.588C54.5733 416.56 54.7523 417.399 55.1103 418.107C55.4767 418.814 55.9924 419.359 56.6571 419.743C57.3219 420.126 58.1103 420.318 59.0222 420.318C59.6273 420.318 60.1813 420.233 60.6841 420.062C61.187 419.892 61.6174 419.636 61.9753 419.295C62.3333 418.955 62.606 418.537 62.7935 418.043L67.8304 418.375C67.5748 419.585 67.0506 420.642 66.258 421.545C65.4739 422.44 64.4597 423.139 63.2154 423.642C61.9796 424.136 60.552 424.384 58.9327 424.384ZM71.4995 431.364V404.364H76.8688V407.662H77.1117C77.3503 407.134 77.6955 406.597 78.1472 406.051C78.6074 405.497 79.204 405.037 79.937 404.67C80.6784 404.295 81.5989 404.108 82.6983 404.108C84.1301 404.108 85.4512 404.483 86.6614 405.233C87.8716 405.974 88.839 407.095 89.5634 408.595C90.2878 410.087 90.65 411.957 90.65 414.207C90.65 416.398 90.2963 418.247 89.589 419.756C88.8901 421.256 87.9355 422.393 86.7253 423.169C85.5236 423.936 84.177 424.32 82.6855 424.32C81.6287 424.32 80.7296 424.145 79.9881 423.795C79.2551 423.446 78.6543 423.007 78.1855 422.479C77.7168 421.942 77.3588 421.401 77.1117 420.855H76.9455V431.364H71.4995ZM76.8304 414.182C76.8304 415.349 76.9924 416.368 77.3162 417.237C77.6401 418.107 78.1088 418.784 78.7225 419.27C79.3361 419.747 80.0819 419.986 80.9597 419.986C81.8461 419.986 82.5961 419.743 83.2097 419.257C83.8233 418.763 84.2878 418.081 84.6032 417.212C84.927 416.334 85.089 415.324 85.089 414.182C85.089 413.048 84.9313 412.051 84.6159 411.19C84.3006 410.33 83.8361 409.656 83.2225 409.17C82.6088 408.685 81.8546 408.442 80.9597 408.442C80.0733 408.442 79.3233 408.676 78.7097 409.145C78.1046 409.614 77.6401 410.278 77.3162 411.139C76.9924 412 76.8304 413.014 76.8304 414.182ZM103.23 424.384C101.21 424.384 99.4711 423.974 98.0137 423.156C96.5648 422.33 95.4483 421.162 94.6642 419.653C93.8801 418.136 93.4881 416.342 93.4881 414.271C93.4881 412.251 93.8801 410.479 94.6642 408.953C95.4483 407.428 96.552 406.239 97.9753 405.386C99.4071 404.534 101.086 404.108 103.012 404.108C104.308 404.108 105.514 404.317 106.63 404.734C107.755 405.143 108.735 405.761 109.57 406.588C110.414 407.415 111.07 408.455 111.539 409.707C112.008 410.952 112.242 412.409 112.242 414.08V415.575H95.6614V412.2H107.116C107.116 411.416 106.945 410.722 106.605 410.116C106.264 409.511 105.791 409.038 105.186 408.697C104.589 408.348 103.894 408.173 103.102 408.173C102.275 408.173 101.542 408.365 100.903 408.749C100.272 409.124 99.7779 409.631 99.4199 410.27C99.062 410.901 98.8787 411.604 98.8702 412.379V415.588C98.8702 416.56 99.0492 417.399 99.4071 418.107C99.7736 418.814 100.289 419.359 100.954 419.743C101.619 420.126 102.407 420.318 103.319 420.318C103.924 420.318 104.478 420.233 104.981 420.062C105.484 419.892 105.914 419.636 106.272 419.295C106.63 418.955 106.903 418.537 107.09 418.043L112.127 418.375C111.872 419.585 111.347 420.642 110.555 421.545C109.771 422.44 108.757 423.139 107.512 423.642C106.276 424.136 104.849 424.384 103.23 424.384ZM121.396 424.371C120.143 424.371 119.026 424.153 118.046 423.719C117.066 423.276 116.291 422.624 115.72 421.763C115.157 420.893 114.876 419.811 114.876 418.516C114.876 417.425 115.076 416.509 115.477 415.767C115.877 415.026 116.423 414.429 117.113 413.977C117.803 413.526 118.588 413.185 119.465 412.955C120.352 412.724 121.281 412.562 122.252 412.469C123.394 412.349 124.315 412.239 125.014 412.136C125.713 412.026 126.22 411.864 126.535 411.651C126.85 411.437 127.008 411.122 127.008 410.705V410.628C127.008 409.818 126.752 409.192 126.241 408.749C125.738 408.305 125.022 408.084 124.093 408.084C123.113 408.084 122.333 408.301 121.754 408.736C121.174 409.162 120.791 409.699 120.603 410.347L115.566 409.938C115.822 408.744 116.325 407.713 117.075 406.844C117.825 405.966 118.792 405.293 119.977 404.824C121.17 404.347 122.551 404.108 124.119 404.108C125.21 404.108 126.254 404.236 127.251 404.491C128.257 404.747 129.147 405.143 129.923 405.68C130.707 406.217 131.325 406.908 131.776 407.751C132.228 408.587 132.454 409.588 132.454 410.756V424H127.289V421.277H127.136C126.82 421.891 126.399 422.432 125.87 422.901C125.342 423.361 124.707 423.723 123.965 423.987C123.224 424.243 122.367 424.371 121.396 424.371ZM122.955 420.612C123.757 420.612 124.464 420.455 125.078 420.139C125.691 419.815 126.173 419.381 126.522 418.835C126.872 418.29 127.046 417.672 127.046 416.982V414.898C126.876 415.009 126.642 415.111 126.343 415.205C126.053 415.29 125.725 415.371 125.359 415.447C124.992 415.516 124.626 415.58 124.259 415.639C123.893 415.69 123.561 415.737 123.262 415.78C122.623 415.874 122.065 416.023 121.588 416.227C121.11 416.432 120.74 416.709 120.475 417.058C120.211 417.399 120.079 417.825 120.079 418.337C120.079 419.078 120.347 419.645 120.884 420.037C121.43 420.42 122.12 420.612 122.955 420.612ZM147.124 404.364V408.455H135.298V404.364H147.124ZM137.983 399.659H143.429V417.966C143.429 418.469 143.506 418.861 143.659 419.142C143.813 419.415 144.026 419.607 144.298 419.717C144.58 419.828 144.904 419.884 145.27 419.884C145.526 419.884 145.781 419.862 146.037 419.82C146.293 419.768 146.489 419.73 146.625 419.705L147.482 423.757C147.209 423.842 146.825 423.94 146.331 424.051C145.837 424.17 145.236 424.243 144.529 424.268C143.216 424.32 142.066 424.145 141.077 423.744C140.097 423.344 139.334 422.722 138.789 421.878C138.243 421.034 137.975 419.969 137.983 418.682V399.659Z" fill="white"/>
<path d="M259.257 53.7086C259.435 56.7335 262.266 57.0587 264.146 59.0142C266.262 61.2148 266.996 64.9921 269.556 66.6086C274.008 69.4205 275.304 72.9351 280.791 74.307" stroke="white" stroke-width="3" stroke-linecap="round"/>
<path d="M288.282 70.5618C292.911 70.8341 297.954 83.6699 291.819 83.6699C287.931 83.6699 275.994 83.4392 274.237 79.9248" stroke="white" stroke-width="3" stroke-linecap="round"/>
<path d="M293.899 155.764C292.666 159.876 286.591 165.076 284.016 168.821C279.656 175.162 275.087 184.138 268 186.5" stroke="white" stroke-width="3" stroke-linecap="round"/>
<path d="M263.002 173.554C263.844 172.923 263.938 184.539 263.938 187.078C263.938 193.619 272.229 191.344 277.046 191.344" stroke="white" stroke-width="3" stroke-linecap="round"/>
<path d="M275.173 255.012C286.51 258.936 295.439 266.549 306.071 271.865" stroke="white" stroke-width="3" stroke-linecap="round"/>
<path d="M312.625 259.693C315.114 264.421 315.325 268.014 315.798 273.217C316.047 275.956 303.323 277.16 301.39 277.483" stroke="white" stroke-width="3" stroke-linecap="round"/>
<path d="M352.886 386.093C357.736 382.212 356.631 395.042 356.631 396.704C356.631 404.62 354.758 412.308 354.758 420.163C354.758 422.522 354.614 423.103 353.406 425.001C351.892 427.38 353.569 430.478 351.95 432.907" stroke="white" stroke-width="3" stroke-linecap="round"/>
<path d="M330.415 419.799C337.455 423.639 336.673 431.825 339.414 438.525C340.453 441.066 343.406 447.29 346.124 448.72C351.18 451.381 358.158 446.461 360.584 442.27C362.114 439.628 365.757 438.762 367.867 436.652" stroke="white" stroke-width="3" stroke-linecap="round"/>
<path d="M104.5 447C101.719 452.561 146.5 486.5 169.5 493.5C192.5 496.5 197.587 497.5 212.5 497.5" stroke="white" stroke-width="3" stroke-linecap="round"/>
<path d="M91.6602 382.347C88.7027 378.281 90.6017 365.86 90.7239 360.605C90.9306 351.717 98.3593 342.578 100.295 333.868C101.057 330.437 103.723 325.319 105.653 322.425C108.005 318.896 107.964 314.208 110.178 310.461C113.297 305.183 116 297 116 291" stroke="white" stroke-width="3" stroke-linecap="round"/>
<path d="M119.749 274.674C116.105 276.817 114.58 281.605 110.854 284.089C107.621 286.244 103.861 289.625 101.023 292.463" stroke="white" stroke-width="3" stroke-linecap="round"/>
<path d="M120 275L128.176 300.89" stroke="white" stroke-width="3" stroke-linecap="round"/>
<path d="M231.186 496L231.205 495.863V495.725C231.205 492.567 232.948 488.99 236.903 485.301C240.842 481.626 246.802 478.016 254.746 474.838C270.623 468.487 294.084 464 324.116 464C354.273 464 385.074 465.952 408.282 471.097C419.902 473.673 429.461 477.017 436.068 481.211C442.664 485.398 446 490.207 446 495.725C446 502.48 441.075 511.249 425.846 518.436C410.633 525.615 385.491 531 346.096 531C306.607 531 276.759 527.98 257.283 521.905C247.539 518.866 240.586 515.12 236.298 510.777C232.091 506.517 230.403 501.648 231.186 496Z" stroke="#46E04C" stroke-width="4"/>
<path d="M101.487 219.225L101.5 219.113V219C101.5 212.241 105.687 206.059 116.393 201.456C127.161 196.825 144.151 194 168.743 194C193.369 194 218.478 195.951 237.367 201.075C246.821 203.639 254.56 206.957 259.896 211.102C265.185 215.21 268 220.023 268 225.725C268 232.693 263.868 241.424 251.59 248.512C239.269 255.626 218.841 261 186.708 261C154.523 261 132.411 256.309 118.77 248.705C111.976 244.917 107.348 240.444 104.574 235.526C101.809 230.622 100.815 225.151 101.487 219.225Z" stroke="#46E04C" stroke-width="4"/>
<path d="M304.474 315.042L304.482 314.949V314.857C304.482 307.879 308.027 301.75 316.617 297.246C325.331 292.677 339.148 289.857 359.267 289.857C379.608 289.857 400.068 289.872 415.455 294.004C423.12 296.062 429.32 299.094 433.594 303.48C437.814 307.811 440.306 313.616 440.306 321.582C440.306 328.736 436.828 337.46 426.877 344.466C416.881 351.503 400.261 356.857 374 356.857C347.675 356.857 329.679 352.178 318.611 344.654C307.685 337.227 303.367 326.942 304.474 315.042Z" stroke="#FF00D6" stroke-width="4"/>
<path d="M286.2 114.223L286.213 114.112V114C286.213 107.229 290.364 101.051 300.951 96.4526C311.604 91.8251 328.417 89 352.761 89C377.281 89 402.091 89.0105 420.779 93.1679C430.113 95.2446 437.696 98.3125 442.917 102.751C448.052 107.118 451 112.886 451 120.725C451 121.876 451.031 123.011 451.061 124.131C451.249 131.077 451.42 137.411 444.147 142.898C439.782 146.192 432.61 149.24 420.817 151.576C409.046 153.908 392.827 155.502 370.5 156C348.176 156.499 331.547 155.574 319.206 153.54C306.845 151.503 298.948 148.378 293.943 144.605C284.211 137.269 284.77 126.966 286.2 114.223Z" stroke="#FF00D6" stroke-width="4"/>
<path d="M118.399 26.4901L118.642 26.0427V25.5333C118.642 19.6589 121.89 14.3769 130.092 10.4434C138.399 6.45966 151.576 4 170.759 4C190.141 4 209.65 4.01264 224.323 7.61661C231.642 9.41407 237.54 12.058 241.589 15.8592C245.569 19.5948 247.896 24.5686 247.896 31.3948C247.896 37.312 244.026 44.5825 234.05 50.6173C224.083 56.6462 208.185 61.3066 184.75 61.8845C161.115 62.4673 140.186 60.7211 127.356 55.1134C120.971 52.3224 116.913 48.7157 115.287 44.2766C113.669 39.8613 114.262 34.0828 118.399 26.4901Z" stroke="white" stroke-width="4"/>
</svg>
