<svg width="406" height="219" viewBox="0 0 406 219" fill="none" xmlns="http://www.w3.org/2000/svg">
<path d="M128.202 72.0078V25.4624H146.838C150.262 25.4624 153.118 25.9699 155.406 26.9851C157.694 28.0002 159.414 29.4093 160.565 31.2124C161.717 33.0002 162.293 35.0608 162.293 37.3942C162.293 39.2124 161.929 40.8108 161.202 42.1896C160.474 43.5533 159.474 44.6745 158.202 45.5533C156.944 46.4169 155.505 47.0305 153.884 47.3942V47.8487C155.656 47.9245 157.315 48.4245 158.861 49.3487C160.421 50.273 161.687 51.5684 162.656 53.2351C163.626 54.8866 164.111 56.8563 164.111 59.1442C164.111 61.6139 163.497 63.8184 162.27 65.7578C161.058 67.6821 159.262 69.2048 156.884 70.326C154.505 71.4472 151.573 72.0078 148.088 72.0078H128.202ZM138.043 63.9624H146.065C148.808 63.9624 150.808 63.4396 152.065 62.3942C153.323 61.3336 153.952 59.9245 153.952 58.1669C153.952 56.879 153.641 55.7427 153.02 54.7578C152.399 53.773 151.512 53.0002 150.361 52.4396C149.224 51.879 147.868 51.5987 146.293 51.5987H138.043V63.9624ZM138.043 44.9396H145.338C146.687 44.9396 147.884 44.7048 148.929 44.2351C149.99 43.7502 150.823 43.0684 151.429 42.1896C152.05 41.3108 152.361 40.2578 152.361 39.0305C152.361 37.3487 151.762 35.9927 150.565 34.9624C149.384 33.9321 147.702 33.4169 145.52 33.4169H138.043V44.9396ZM192.719 57.1442V37.0987H202.401V72.0078H193.105V65.6669H192.741C191.954 67.7124 190.643 69.3563 188.81 70.5987C186.991 71.8411 184.772 72.4624 182.151 72.4624C179.817 72.4624 177.764 71.9321 175.991 70.8714C174.219 69.8108 172.832 68.3033 171.832 66.3487C170.848 64.3942 170.348 62.0533 170.332 59.326V37.0987H180.014V57.5987C180.029 59.6593 180.582 61.2881 181.673 62.4851C182.764 63.6821 184.226 64.2805 186.06 64.2805C187.226 64.2805 188.317 64.0154 189.332 63.4851C190.348 62.9396 191.166 62.1366 191.787 61.076C192.423 60.0154 192.734 58.7048 192.719 57.1442ZM210.145 72.0078V37.0987H219.827V72.0078H210.145ZM215.009 32.5987C213.569 32.5987 212.334 32.1214 211.304 31.1669C210.289 30.1972 209.781 29.0381 209.781 27.6896C209.781 26.3563 210.289 25.2124 211.304 24.2578C212.334 23.2881 213.569 22.8033 215.009 22.8033C216.448 22.8033 217.675 23.2881 218.69 24.2578C219.721 25.2124 220.236 26.3563 220.236 27.6896C220.236 29.0381 219.721 30.1972 218.69 31.1669C217.675 32.1214 216.448 32.5987 215.009 32.5987ZM237.264 25.4624V72.0078H227.582V25.4624H237.264ZM257.884 72.576C255.232 72.576 252.83 71.8942 250.679 70.5305C248.543 69.1518 246.846 67.129 245.588 64.4624C244.346 61.7805 243.724 58.4927 243.724 54.5987C243.724 50.5987 244.368 47.273 245.656 44.6214C246.944 41.9548 248.656 39.9624 250.793 38.6442C252.944 37.3108 255.3 36.6442 257.861 36.6442C259.815 36.6442 261.444 36.9775 262.747 37.6442C264.065 38.2957 265.126 39.1139 265.929 40.0987C266.747 41.0684 267.368 42.023 267.793 42.9624H268.088V25.4624H277.747V72.0078H268.202V66.4169H267.793C267.338 67.3866 266.694 68.3487 265.861 69.3033C265.043 70.2427 263.974 71.023 262.656 71.6442C261.353 72.2654 259.762 72.576 257.884 72.576ZM260.952 64.8714C262.512 64.8714 263.83 64.4472 264.906 63.5987C265.997 62.7351 266.83 61.5305 267.406 59.9851C267.997 58.4396 268.293 56.629 268.293 54.5533C268.293 52.4775 268.005 50.6745 267.429 49.1442C266.853 47.6139 266.02 46.4321 264.929 45.5987C263.838 44.7654 262.512 44.3487 260.952 44.3487C259.361 44.3487 258.02 44.7805 256.929 45.6442C255.838 46.5078 255.012 47.7048 254.452 49.2351C253.891 50.7654 253.611 52.5381 253.611 54.5533C253.611 56.5836 253.891 58.379 254.452 59.9396C255.027 61.4851 255.853 62.6972 256.929 63.576C258.02 64.4396 259.361 64.8714 260.952 64.8714Z" fill="white"/>
<path d="M333 58.7488C333 63.699 329.718 69.4482 322.191 75.4478C314.793 81.3448 304.082 86.8169 291.255 91.2541C265.605 100.127 232.604 104.484 203.503 100.538C194.174 99.2727 183.857 98.3413 173.458 97.4025C167.098 96.8283 160.707 96.2514 154.494 95.5937C137.832 93.83 122.118 91.4647 109.657 87.0787C97.1311 82.6702 88.935 76.5931 85.6688 68.1099C82.3896 59.5927 83.436 46.9858 93.493 27.9633C97.6607 20.0804 102.94 14.9596 109.187 11.5661C115.52 8.12535 123.119 6.31476 132.103 5.51928C141.106 4.7222 151.19 4.96523 162.414 5.43232C164.564 5.52181 166.755 5.61948 168.984 5.71881C178.292 6.1337 188.256 6.5778 198.64 6.5778C201.994 6.5778 205.487 6.55806 209.088 6.53771C233.201 6.40145 262.14 6.23792 286.301 11.791C300.131 14.9699 311.834 19.914 320.023 27.3635C328.03 34.6479 333 44.6096 333 58.7488Z" stroke="#FF00D6" stroke-width="10"/>
<path d="M209.5 133V212.5M209.5 212.5L236 193.5M209.5 212.5L181 193.5" stroke="white" stroke-width="10"/>
</svg>
