<svg width="134" height="43" viewBox="0 0 134 43" fill="none" xmlns="http://www.w3.org/2000/svg">
<path d="M28.6052 40L0 37.0667L12.3783 16.1333L49.3605 9.46667L17.03 7.06667L19.0258 4.66667L21.8197 0.666667L53.0858 0L62 18.5333L16.0987 20L28.6052 40Z" fill="#F5F5F5"/>
<path d="M41.9812 40V31.2727H45.4244C46.0863 31.2727 46.6502 31.3991 47.1161 31.652C47.582 31.902 47.9371 32.25 48.1815 32.696C48.4286 33.1392 48.5522 33.6506 48.5522 34.2301C48.5522 34.8097 48.4272 35.321 48.1772 35.7642C47.9272 36.2074 47.565 36.5526 47.0906 36.7997C46.619 37.0469 46.0479 37.1705 45.3775 37.1705H43.1829V35.6918H45.0792C45.4343 35.6918 45.7269 35.6307 45.957 35.5085C46.19 35.3835 46.3633 35.2116 46.4769 34.9929C46.5934 34.7713 46.6516 34.517 46.6516 34.2301C46.6516 33.9403 46.5934 33.6875 46.4769 33.4716C46.3633 33.2528 46.19 33.0838 45.957 32.9645C45.7241 32.8423 45.4286 32.7812 45.0707 32.7812H43.8263V40H41.9812ZM49.7166 40V33.4545H51.4766V34.5966H51.5447C51.6641 34.1903 51.8643 33.8835 52.1456 33.6761C52.4268 33.4659 52.7507 33.3608 53.1172 33.3608C53.2081 33.3608 53.3061 33.3665 53.4112 33.3778C53.5163 33.3892 53.6087 33.4048 53.6882 33.4247V35.0355C53.603 35.0099 53.4851 34.9872 53.3345 34.9673C53.1839 34.9474 53.0462 34.9375 52.9212 34.9375C52.6541 34.9375 52.4155 34.9957 52.2053 35.1122C51.9979 35.2259 51.8331 35.3849 51.7109 35.5895C51.5916 35.794 51.532 36.0298 51.532 36.2969V40H49.7166ZM57.2795 40.1278C56.6175 40.1278 56.0451 39.9872 55.5621 39.706C55.082 39.4219 54.7113 39.027 54.4499 38.5213C54.1886 38.0128 54.0579 37.4233 54.0579 36.7528C54.0579 36.0767 54.1886 35.4858 54.4499 34.9801C54.7113 34.4716 55.082 34.0767 55.5621 33.7955C56.0451 33.5114 56.6175 33.3693 57.2795 33.3693C57.9414 33.3693 58.5124 33.5114 58.9925 33.7955C59.4755 34.0767 59.8477 34.4716 60.109 34.9801C60.3704 35.4858 60.5011 36.0767 60.5011 36.7528C60.5011 37.4233 60.3704 38.0128 60.109 38.5213C59.8477 39.027 59.4755 39.4219 58.9925 39.706C58.5124 39.9872 57.9414 40.1278 57.2795 40.1278ZM57.288 38.7216C57.5891 38.7216 57.8406 38.6364 58.0423 38.4659C58.244 38.2926 58.396 38.0568 58.4982 37.7585C58.6033 37.4602 58.6559 37.1207 58.6559 36.7401C58.6559 36.3594 58.6033 36.0199 58.4982 35.7216C58.396 35.4233 58.244 35.1875 58.0423 35.0142C57.8406 34.8409 57.5891 34.7543 57.288 34.7543C56.984 34.7543 56.7283 34.8409 56.521 35.0142C56.3164 35.1875 56.1616 35.4233 56.0565 35.7216C55.9542 36.0199 55.9031 36.3594 55.9031 36.7401C55.9031 37.1207 55.9542 37.4602 56.0565 37.7585C56.1616 38.0568 56.3164 38.2926 56.521 38.4659C56.7283 38.6364 56.984 38.7216 57.288 38.7216ZM61.6815 33.4545H63.4968V40.3239C63.4968 40.8295 63.3974 41.2386 63.1985 41.5511C62.9996 41.8636 62.7141 42.0923 62.342 42.2372C61.9727 42.3821 61.5309 42.4545 61.0167 42.4545C60.9542 42.4545 60.8945 42.4531 60.8377 42.4503C60.7781 42.4503 60.7156 42.4489 60.6502 42.446V41.027C60.6985 41.0298 60.7411 41.0312 60.7781 41.0312C60.8121 41.0341 60.8491 41.0355 60.8888 41.0355C61.1815 41.0355 61.386 40.973 61.5025 40.848C61.6218 40.7259 61.6815 40.5412 61.6815 40.294V33.4545ZM62.5849 32.6108C62.3178 32.6108 62.0877 32.5213 61.8945 32.3423C61.7013 32.1605 61.6048 31.9432 61.6048 31.6903C61.6048 31.4403 61.7013 31.2259 61.8945 31.0469C62.0877 30.8651 62.3178 30.7741 62.5849 30.7741C62.8576 30.7741 63.0891 30.8651 63.2795 31.0469C63.4727 31.2259 63.5692 31.4403 63.5692 31.6903C63.5692 31.9432 63.4727 32.1605 63.2795 32.3423C63.0891 32.5213 62.8576 32.6108 62.5849 32.6108ZM67.9339 40.1278C67.2607 40.1278 66.6811 39.9915 66.1953 39.7188C65.7124 39.4432 65.3402 39.054 65.0788 38.5511C64.8175 38.0455 64.6868 37.4474 64.6868 36.7571C64.6868 36.0838 64.8175 35.4929 65.0788 34.9844C65.3402 34.4759 65.7081 34.0795 66.1825 33.7955C66.6598 33.5114 67.2195 33.3693 67.8615 33.3693C68.2933 33.3693 68.6953 33.4389 69.0675 33.5781C69.4425 33.7145 69.7692 33.9205 70.0476 34.196C70.3288 34.4716 70.5476 34.8182 70.7038 35.2358C70.8601 35.6506 70.9382 36.1364 70.9382 36.6932V37.1918H65.4112V36.0668H69.2294C69.2294 35.8054 69.1726 35.5739 69.0589 35.3722C68.9453 35.1705 68.7876 35.0128 68.5859 34.8991C68.3871 34.7827 68.1555 34.7244 67.8913 34.7244C67.6158 34.7244 67.3714 34.7884 67.1584 34.9162C66.9482 35.0412 66.7834 35.2102 66.6641 35.4233C66.5447 35.6335 66.4837 35.8679 66.4808 36.1264V37.196C66.4808 37.5199 66.5405 37.7997 66.6598 38.0355C66.782 38.2713 66.9538 38.4531 67.1754 38.581C67.397 38.7088 67.6598 38.7727 67.9638 38.7727C68.1655 38.7727 68.3501 38.7443 68.5178 38.6875C68.6854 38.6307 68.8288 38.5455 68.9482 38.4318C69.0675 38.3182 69.1584 38.179 69.2209 38.0142L70.8999 38.125C70.8146 38.5284 70.6399 38.8807 70.3757 39.1818C70.1143 39.4801 69.7763 39.7131 69.3615 39.8807C68.9496 40.0455 68.4737 40.1278 67.9339 40.1278ZM75.0803 40.1278C74.4098 40.1278 73.8331 39.9858 73.3501 39.7017C72.87 39.4148 72.5007 39.017 72.2422 38.5085C71.9865 38 71.8587 37.4148 71.8587 36.7528C71.8587 36.0824 71.9879 35.4943 72.2464 34.9886C72.5078 34.4801 72.8786 34.0838 73.3587 33.7997C73.8388 33.5128 74.4098 33.3693 75.0717 33.3693C75.6428 33.3693 76.1428 33.473 76.5717 33.6804C77.0007 33.8878 77.3402 34.179 77.5902 34.554C77.8402 34.929 77.978 35.3693 78.0036 35.875H76.2905C76.2422 35.5483 76.1143 35.2855 75.907 35.0866C75.7024 34.8849 75.4339 34.7841 75.1016 34.7841C74.8203 34.7841 74.5746 34.8608 74.3643 35.0142C74.157 35.1648 73.995 35.3849 73.8786 35.6747C73.7621 35.9645 73.7038 36.3153 73.7038 36.7273C73.7038 37.1449 73.7607 37.5 73.8743 37.7926C73.9908 38.0852 74.1541 38.3082 74.3643 38.4616C74.5746 38.6151 74.8203 38.6918 75.1016 38.6918C75.3089 38.6918 75.495 38.6491 75.6598 38.5639C75.8274 38.4787 75.9652 38.3551 76.0732 38.1932C76.1839 38.0284 76.2564 37.831 76.2905 37.6009H78.0036C77.9751 38.1009 77.8388 38.5412 77.5945 38.9219C77.353 39.2997 77.0192 39.5952 76.593 39.8082C76.1669 40.0213 75.6626 40.1278 75.0803 40.1278ZM82.6474 33.4545V34.8182H78.7056V33.4545H82.6474ZM79.6005 31.8864H81.4158V37.9886C81.4158 38.1562 81.4414 38.2869 81.4925 38.3807C81.5437 38.4716 81.6147 38.5355 81.7056 38.5724C81.7994 38.6094 81.9073 38.6278 82.0295 38.6278C82.1147 38.6278 82.1999 38.6207 82.2852 38.6065C82.3704 38.5895 82.4357 38.5767 82.4812 38.5682L82.7667 39.919C82.6758 39.9474 82.5479 39.9801 82.3832 40.017C82.2184 40.0568 82.0181 40.081 81.7823 40.0895C81.3448 40.1065 80.9613 40.0483 80.6317 39.9148C80.305 39.7812 80.0508 39.5739 79.869 39.2926C79.6871 39.0114 79.5977 38.6562 79.6005 38.2273V31.8864ZM86.6413 40V31.2727H90.1357C90.7777 31.2727 91.3132 31.3679 91.7422 31.5582C92.1712 31.7486 92.4936 32.0128 92.7095 32.3509C92.9254 32.6861 93.0334 33.0724 93.0334 33.5099C93.0334 33.8509 92.9652 34.1506 92.8288 34.4091C92.6925 34.6648 92.505 34.875 92.2663 35.0398C92.0305 35.2017 91.7607 35.3168 91.4567 35.3849V35.4702C91.7891 35.4844 92.1001 35.5781 92.3899 35.7514C92.6825 35.9247 92.9197 36.1676 93.1016 36.4801C93.2834 36.7898 93.3743 37.1591 93.3743 37.5881C93.3743 38.0511 93.2592 38.4645 93.0291 38.8281C92.8018 39.1889 92.4652 39.4744 92.0192 39.6847C91.5732 39.8949 91.0234 40 90.37 40H86.6413ZM88.4865 38.4915H89.9908C90.505 38.4915 90.88 38.3935 91.1158 38.1974C91.3516 37.9986 91.4695 37.7344 91.4695 37.4048C91.4695 37.1634 91.4112 36.9503 91.2947 36.7656C91.1783 36.581 91.0121 36.4361 90.7962 36.331C90.5831 36.2259 90.3288 36.1733 90.0334 36.1733H88.4865V38.4915ZM88.4865 34.9247H89.8544C90.1072 34.9247 90.3317 34.8807 90.5277 34.7926C90.7266 34.7017 90.8828 34.5739 90.9964 34.4091C91.1129 34.2443 91.1712 34.0469 91.1712 33.8168C91.1712 33.5014 91.0589 33.2472 90.8345 33.054C90.6129 32.8608 90.2976 32.7642 89.8885 32.7642H88.4865V34.9247ZM98.7383 37.2131V33.4545H100.554V40H98.8107V38.8111H98.7425C98.5948 39.1946 98.3491 39.5028 98.0053 39.7358C97.6644 39.9687 97.2482 40.0852 96.7567 40.0852C96.3192 40.0852 95.9343 39.9858 95.6019 39.7869C95.2695 39.5881 95.0096 39.3054 94.8221 38.9389C94.6374 38.5724 94.5437 38.1335 94.5408 37.6222V33.4545H96.3562V37.2983C96.359 37.6847 96.4627 37.9901 96.6673 38.2145C96.8718 38.4389 97.146 38.5511 97.4897 38.5511C97.7085 38.5511 97.913 38.5014 98.1033 38.402C98.2937 38.2997 98.4471 38.1491 98.5636 37.9503C98.6829 37.7514 98.7411 37.5057 98.7383 37.2131ZM102.006 40V33.4545H103.821V40H102.006ZM102.918 32.6108C102.648 32.6108 102.416 32.5213 102.223 32.3423C102.033 32.1605 101.938 31.9432 101.938 31.6903C101.938 31.4403 102.033 31.2259 102.223 31.0469C102.416 30.8651 102.648 30.7741 102.918 30.7741C103.188 30.7741 103.418 30.8651 103.608 31.0469C103.801 31.2259 103.898 31.4403 103.898 31.6903C103.898 31.9432 103.801 32.1605 103.608 32.3423C103.418 32.5213 103.188 32.6108 102.918 32.6108ZM107.091 31.2727V40H105.275V31.2727H107.091ZM110.957 40.1065C110.46 40.1065 110.009 39.9787 109.606 39.723C109.205 39.4645 108.887 39.0852 108.651 38.5852C108.418 38.0824 108.302 37.4659 108.302 36.7358C108.302 35.9858 108.423 35.3622 108.664 34.8651C108.906 34.3651 109.227 33.9915 109.627 33.7443C110.031 33.4943 110.472 33.3693 110.952 33.3693C111.319 33.3693 111.624 33.4318 111.869 33.5568C112.116 33.679 112.315 33.8324 112.465 34.017C112.619 34.1989 112.735 34.3778 112.815 34.554H112.87V31.2727H114.681V40H112.891V38.9517H112.815C112.729 39.1335 112.609 39.3139 112.452 39.4929C112.299 39.669 112.099 39.8153 111.852 39.9318C111.607 40.0483 111.309 40.1065 110.957 40.1065ZM111.532 38.6619C111.825 38.6619 112.072 38.5824 112.273 38.4233C112.478 38.2614 112.634 38.0355 112.742 37.7457C112.853 37.456 112.908 37.1165 112.908 36.7273C112.908 36.3381 112.854 36 112.746 35.7131C112.638 35.4261 112.482 35.2045 112.278 35.0483C112.073 34.892 111.825 34.8139 111.532 34.8139C111.234 34.8139 110.982 34.8949 110.778 35.0568C110.573 35.2187 110.418 35.4432 110.313 35.7301C110.208 36.017 110.156 36.3494 110.156 36.7273C110.156 37.108 110.208 37.4446 110.313 37.7372C110.421 38.027 110.576 38.2543 110.778 38.419C110.982 38.581 111.234 38.6619 111.532 38.6619ZM116.174 40V33.4545H117.989V40H116.174ZM117.086 32.6108C116.816 32.6108 116.584 32.5213 116.391 32.3423C116.201 32.1605 116.105 31.9432 116.105 31.6903C116.105 31.4403 116.201 31.2259 116.391 31.0469C116.584 30.8651 116.816 30.7741 117.086 30.7741C117.355 30.7741 117.586 30.8651 117.776 31.0469C117.969 31.2259 118.066 31.4403 118.066 31.6903C118.066 31.9432 117.969 32.1605 117.776 32.3423C117.586 32.5213 117.355 32.6108 117.086 32.6108ZM121.259 36.2159V40H119.443V33.4545H121.173V34.6094H121.25C121.395 34.2287 121.638 33.9276 121.979 33.706C122.32 33.4815 122.733 33.3693 123.219 33.3693C123.673 33.3693 124.07 33.4688 124.408 33.6676C124.746 33.8665 125.009 34.1506 125.196 34.5199C125.384 34.8864 125.477 35.3239 125.477 35.8324V40H123.662V36.1562C123.665 35.7557 123.563 35.4432 123.355 35.2188C123.148 34.9915 122.862 34.8778 122.499 34.8778C122.254 34.8778 122.038 34.9304 121.851 35.0355C121.666 35.1406 121.521 35.294 121.416 35.4957C121.314 35.6946 121.261 35.9347 121.259 36.2159ZM129.857 42.5909C129.269 42.5909 128.765 42.5099 128.344 42.348C127.926 42.1889 127.594 41.9716 127.347 41.696C127.1 41.4205 126.939 41.1108 126.865 40.767L128.544 40.5412C128.596 40.6719 128.676 40.794 128.787 40.9077C128.898 41.0213 129.044 41.1122 129.226 41.1804C129.411 41.2514 129.635 41.2869 129.9 41.2869C130.294 41.2869 130.62 41.1903 130.875 40.9972C131.134 40.8068 131.263 40.4872 131.263 40.0384V38.8409H131.186C131.107 39.0227 130.988 39.1946 130.828 39.3565C130.669 39.5185 130.465 39.6506 130.215 39.7528C129.965 39.8551 129.667 39.9062 129.32 39.9062C128.828 39.9062 128.381 39.7926 127.978 39.5653C127.577 39.3352 127.257 38.9844 127.019 38.5128C126.783 38.0384 126.665 37.4389 126.665 36.7145C126.665 35.973 126.786 35.3537 127.027 34.8565C127.269 34.3594 127.59 33.9872 127.99 33.7401C128.394 33.4929 128.836 33.3693 129.316 33.3693C129.682 33.3693 129.989 33.4318 130.236 33.5568C130.483 33.679 130.682 33.8324 130.833 34.017C130.986 34.1989 131.104 34.3778 131.186 34.554H131.255V33.4545H133.057V40.0639C133.057 40.6207 132.921 41.0866 132.648 41.4616C132.375 41.8366 131.998 42.1179 131.515 42.3054C131.034 42.4957 130.482 42.5909 129.857 42.5909ZM129.895 38.5426C130.188 38.5426 130.435 38.4702 130.637 38.3253C130.841 38.1776 130.998 37.9673 131.105 37.6946C131.216 37.419 131.272 37.0895 131.272 36.706C131.272 36.3224 131.218 35.9901 131.11 35.7088C131.002 35.4247 130.846 35.2045 130.641 35.0483C130.436 34.892 130.188 34.8139 129.895 34.8139C129.597 34.8139 129.346 34.8949 129.141 35.0568C128.936 35.2159 128.782 35.4375 128.676 35.7216C128.571 36.0057 128.519 36.3338 128.519 36.706C128.519 37.0838 128.571 37.4105 128.676 37.6861C128.784 37.9588 128.939 38.1705 129.141 38.321C129.346 38.4687 129.597 38.5426 129.895 38.5426Z" fill="white"/>
</svg>
