<svg width="541" height="630" viewBox="0 0 541 630" fill="none" xmlns="http://www.w3.org/2000/svg">
<rect width="541" height="630" fill="#1A1A1E"/>
<path d="M148.091 86H142.159L151.198 59.8182H158.331L167.357 86H161.425L154.867 65.8011H154.662L148.091 86ZM147.72 75.7088H161.732V80.0298H147.72V75.7088ZM170.406 93.3636V66.3636H175.775V69.6619H176.018C176.257 69.1335 176.602 68.5966 177.053 68.0511C177.514 67.4972 178.11 67.0369 178.843 66.6705C179.585 66.2955 180.505 66.108 181.605 66.108C183.036 66.108 184.357 66.483 185.568 67.233C186.778 67.9744 187.745 69.0952 188.47 70.5952C189.194 72.0866 189.556 73.9574 189.556 76.2074C189.556 78.3977 189.203 80.2472 188.495 81.7557C187.796 83.2557 186.842 84.3935 185.632 85.169C184.43 85.9361 183.083 86.3196 181.592 86.3196C180.535 86.3196 179.636 86.1449 178.894 85.7955C178.161 85.446 177.561 85.0071 177.092 84.4787C176.623 83.9418 176.265 83.4006 176.018 82.8551H175.852V93.3636H170.406ZM175.737 76.1818C175.737 77.3494 175.899 78.3679 176.222 79.2372C176.546 80.1065 177.015 80.7841 177.629 81.2699C178.242 81.7472 178.988 81.9858 179.866 81.9858C180.752 81.9858 181.502 81.7429 182.116 81.2571C182.73 80.7628 183.194 80.081 183.509 79.2116C183.833 78.3338 183.995 77.3239 183.995 76.1818C183.995 75.0483 183.838 74.0511 183.522 73.1903C183.207 72.3295 182.742 71.6562 182.129 71.1705C181.515 70.6847 180.761 70.4418 179.866 70.4418C178.98 70.4418 178.23 70.6761 177.616 71.1449C177.011 71.6136 176.546 72.2784 176.222 73.1392C175.899 74 175.737 75.0142 175.737 76.1818ZM193.187 93.3636V66.3636H198.556V69.6619H198.799C199.038 69.1335 199.383 68.5966 199.835 68.0511C200.295 67.4972 200.892 67.0369 201.624 66.6705C202.366 66.2955 203.286 66.108 204.386 66.108C205.818 66.108 207.139 66.483 208.349 67.233C209.559 67.9744 210.526 69.0952 211.251 70.5952C211.975 72.0866 212.338 73.9574 212.338 76.2074C212.338 78.3977 211.984 80.2472 211.276 81.7557C210.578 83.2557 209.623 84.3935 208.413 85.169C207.211 85.9361 205.865 86.3196 204.373 86.3196C203.316 86.3196 202.417 86.1449 201.676 85.7955C200.943 85.446 200.342 85.0071 199.873 84.4787C199.404 83.9418 199.046 83.4006 198.799 82.8551H198.633V93.3636H193.187ZM198.518 76.1818C198.518 77.3494 198.68 78.3679 199.004 79.2372C199.328 80.1065 199.796 80.7841 200.41 81.2699C201.024 81.7472 201.769 81.9858 202.647 81.9858C203.534 81.9858 204.284 81.7429 204.897 81.2571C205.511 80.7628 205.975 80.081 206.291 79.2116C206.615 78.3338 206.776 77.3239 206.776 76.1818C206.776 75.0483 206.619 74.0511 206.303 73.1903C205.988 72.3295 205.524 71.6562 204.91 71.1705C204.296 70.6847 203.542 70.4418 202.647 70.4418C201.761 70.4418 201.011 70.6761 200.397 71.1449C199.792 71.6136 199.328 72.2784 199.004 73.1392C198.68 74 198.518 75.0142 198.518 76.1818ZM221.414 59.8182V86H215.968V59.8182H221.414ZM229.139 93.3636C228.449 93.3636 227.801 93.3082 227.196 93.1974C226.599 93.0952 226.105 92.9631 225.713 92.8011L226.94 88.7358C227.579 88.9318 228.155 89.0384 228.666 89.0554C229.186 89.0724 229.633 88.9531 230.008 88.6974C230.392 88.4418 230.703 88.0071 230.942 87.3935L231.261 86.5625L224.217 66.3636H229.944L234.01 80.7841H234.214L238.318 66.3636H244.084L236.452 88.1222C236.085 89.179 235.586 90.0994 234.956 90.8835C234.334 91.6761 233.545 92.2855 232.591 92.7116C231.636 93.1463 230.486 93.3636 229.139 93.3636Z" fill="white"/>
<path d="M315.347 151.818L321.676 171.71H321.919L328.259 151.818H334.396L325.37 178H318.237L309.198 151.818H315.347ZM340.865 178.371C339.612 178.371 338.495 178.153 337.515 177.719C336.535 177.276 335.759 176.624 335.188 175.763C334.626 174.893 334.345 173.811 334.345 172.516C334.345 171.425 334.545 170.509 334.945 169.767C335.346 169.026 335.892 168.429 336.582 167.977C337.272 167.526 338.056 167.185 338.934 166.955C339.82 166.724 340.749 166.562 341.721 166.469C342.863 166.349 343.784 166.239 344.482 166.136C345.181 166.026 345.688 165.864 346.004 165.651C346.319 165.437 346.477 165.122 346.477 164.705V164.628C346.477 163.818 346.221 163.192 345.71 162.749C345.207 162.305 344.491 162.084 343.562 162.084C342.582 162.084 341.802 162.301 341.222 162.736C340.643 163.162 340.259 163.699 340.072 164.347L335.035 163.938C335.291 162.744 335.794 161.713 336.544 160.844C337.294 159.966 338.261 159.293 339.445 158.824C340.639 158.347 342.019 158.108 343.588 158.108C344.678 158.108 345.722 158.236 346.72 158.491C347.725 158.747 348.616 159.143 349.392 159.68C350.176 160.217 350.794 160.908 351.245 161.751C351.697 162.587 351.923 163.588 351.923 164.756V178H346.758V175.277H346.605C346.289 175.891 345.867 176.432 345.339 176.901C344.811 177.361 344.176 177.723 343.434 177.987C342.693 178.243 341.836 178.371 340.865 178.371ZM342.424 174.612C343.225 174.612 343.933 174.455 344.546 174.139C345.16 173.815 345.642 173.381 345.991 172.835C346.34 172.29 346.515 171.672 346.515 170.982V168.898C346.345 169.009 346.11 169.111 345.812 169.205C345.522 169.29 345.194 169.371 344.828 169.447C344.461 169.516 344.095 169.58 343.728 169.639C343.362 169.69 343.029 169.737 342.731 169.78C342.092 169.874 341.534 170.023 341.056 170.227C340.579 170.432 340.208 170.709 339.944 171.058C339.68 171.399 339.548 171.825 339.548 172.337C339.548 173.078 339.816 173.645 340.353 174.037C340.899 174.42 341.589 174.612 342.424 174.612ZM361.594 151.818V178H356.148V151.818H361.594ZM365.956 178V158.364H371.403V178H365.956ZM368.692 155.832C367.883 155.832 367.188 155.564 366.608 155.027C366.037 154.482 365.752 153.83 365.752 153.071C365.752 152.321 366.037 151.678 366.608 151.141C367.188 150.595 367.883 150.322 368.692 150.322C369.502 150.322 370.192 150.595 370.763 151.141C371.343 151.678 371.633 152.321 371.633 153.071C371.633 153.83 371.343 154.482 370.763 155.027C370.192 155.564 369.502 155.832 368.692 155.832ZM383.001 178.32C381.509 178.32 380.159 177.936 378.948 177.169C377.747 176.393 376.792 175.256 376.085 173.756C375.386 172.247 375.036 170.398 375.036 168.207C375.036 165.957 375.399 164.087 376.123 162.595C376.847 161.095 377.811 159.974 379.012 159.233C380.222 158.483 381.548 158.108 382.988 158.108C384.088 158.108 385.004 158.295 385.737 158.67C386.478 159.037 387.075 159.497 387.526 160.051C387.987 160.597 388.336 161.134 388.575 161.662H388.741V151.818H394.174V178H388.805V174.855H388.575C388.319 175.401 387.957 175.942 387.488 176.479C387.028 177.007 386.427 177.446 385.686 177.795C384.953 178.145 384.058 178.32 383.001 178.32ZM384.727 173.986C385.605 173.986 386.346 173.747 386.951 173.27C387.565 172.784 388.034 172.107 388.357 171.237C388.69 170.368 388.856 169.349 388.856 168.182C388.856 167.014 388.694 166 388.37 165.139C388.046 164.278 387.578 163.614 386.964 163.145C386.35 162.676 385.605 162.442 384.727 162.442C383.832 162.442 383.078 162.685 382.464 163.17C381.85 163.656 381.386 164.33 381.07 165.19C380.755 166.051 380.597 167.048 380.597 168.182C380.597 169.324 380.755 170.334 381.07 171.212C381.394 172.081 381.859 172.763 382.464 173.257C383.078 173.743 383.832 173.986 384.727 173.986ZM404.251 178.371C402.998 178.371 401.882 178.153 400.902 177.719C399.922 177.276 399.146 176.624 398.575 175.763C398.013 174.893 397.731 173.811 397.731 172.516C397.731 171.425 397.932 170.509 398.332 169.767C398.733 169.026 399.278 168.429 399.969 167.977C400.659 167.526 401.443 167.185 402.321 166.955C403.207 166.724 404.136 166.562 405.108 166.469C406.25 166.349 407.17 166.239 407.869 166.136C408.568 166.026 409.075 165.864 409.39 165.651C409.706 165.437 409.863 165.122 409.863 164.705V164.628C409.863 163.818 409.608 163.192 409.096 162.749C408.594 162.305 407.878 162.084 406.949 162.084C405.969 162.084 405.189 162.301 404.609 162.736C404.03 163.162 403.646 163.699 403.459 164.347L398.422 163.938C398.677 162.744 399.18 161.713 399.93 160.844C400.68 159.966 401.648 159.293 402.832 158.824C404.025 158.347 405.406 158.108 406.974 158.108C408.065 158.108 409.109 158.236 410.106 158.491C411.112 158.747 412.003 159.143 412.778 159.68C413.562 160.217 414.18 160.908 414.632 161.751C415.084 162.587 415.309 163.588 415.309 164.756V178H410.145V175.277H409.991C409.676 175.891 409.254 176.432 408.726 176.901C408.197 177.361 407.562 177.723 406.821 177.987C406.079 178.243 405.223 178.371 404.251 178.371ZM405.811 174.612C406.612 174.612 407.319 174.455 407.933 174.139C408.547 173.815 409.028 173.381 409.378 172.835C409.727 172.29 409.902 171.672 409.902 170.982V168.898C409.731 169.009 409.497 169.111 409.199 169.205C408.909 169.29 408.581 169.371 408.214 169.447C407.848 169.516 407.481 169.58 407.115 169.639C406.748 169.69 406.416 169.737 406.118 169.78C405.479 169.874 404.92 170.023 404.443 170.227C403.966 170.432 403.595 170.709 403.331 171.058C403.067 171.399 402.934 171.825 402.934 172.337C402.934 173.078 403.203 173.645 403.74 174.037C404.285 174.42 404.976 174.612 405.811 174.612ZM429.979 158.364V162.455H418.154V158.364H429.979ZM420.839 153.659H426.285V171.966C426.285 172.469 426.361 172.861 426.515 173.142C426.668 173.415 426.881 173.607 427.154 173.717C427.435 173.828 427.759 173.884 428.126 173.884C428.381 173.884 428.637 173.862 428.893 173.82C429.148 173.768 429.344 173.73 429.481 173.705L430.337 177.757C430.064 177.842 429.681 177.94 429.187 178.051C428.692 178.17 428.091 178.243 427.384 178.268C426.072 178.32 424.921 178.145 423.932 177.744C422.952 177.344 422.189 176.722 421.644 175.878C421.099 175.034 420.83 173.969 420.839 172.682V153.659ZM442.265 178.384C440.245 178.384 438.506 177.974 437.049 177.156C435.6 176.33 434.483 175.162 433.699 173.653C432.915 172.136 432.523 170.342 432.523 168.271C432.523 166.251 432.915 164.479 433.699 162.953C434.483 161.428 435.587 160.239 437.01 159.386C438.442 158.534 440.121 158.108 442.047 158.108C443.343 158.108 444.549 158.317 445.665 158.734C446.79 159.143 447.77 159.761 448.606 160.588C449.449 161.415 450.106 162.455 450.574 163.707C451.043 164.952 451.278 166.409 451.278 168.08V169.575H434.697V166.2H446.151C446.151 165.416 445.981 164.722 445.64 164.116C445.299 163.511 444.826 163.038 444.221 162.697C443.624 162.348 442.93 162.173 442.137 162.173C441.31 162.173 440.577 162.365 439.938 162.749C439.307 163.124 438.813 163.631 438.455 164.27C438.097 164.901 437.914 165.604 437.905 166.379V169.588C437.905 170.56 438.084 171.399 438.442 172.107C438.809 172.814 439.324 173.359 439.989 173.743C440.654 174.126 441.442 174.318 442.354 174.318C442.959 174.318 443.513 174.233 444.016 174.062C444.519 173.892 444.949 173.636 445.307 173.295C445.665 172.955 445.938 172.537 446.126 172.043L451.162 172.375C450.907 173.585 450.383 174.642 449.59 175.545C448.806 176.44 447.792 177.139 446.547 177.642C445.312 178.136 443.884 178.384 442.265 178.384Z" fill="white"/>
<path d="M138.686 252.818V279H133.151V252.818H138.686ZM148.584 267.648V279H143.138V259.364H148.328V262.828H148.559C148.993 261.686 149.722 260.783 150.745 260.118C151.767 259.445 153.007 259.108 154.465 259.108C155.828 259.108 157.017 259.406 158.032 260.003C159.046 260.599 159.834 261.452 160.397 262.56C160.959 263.659 161.24 264.972 161.24 266.497V279H155.794V267.469C155.803 266.267 155.496 265.33 154.874 264.656C154.252 263.974 153.395 263.634 152.304 263.634C151.571 263.634 150.924 263.791 150.361 264.107C149.807 264.422 149.373 264.882 149.057 265.487C148.75 266.084 148.593 266.804 148.584 267.648ZM172.97 257.382V252.818H194.473V257.382H186.457V279H180.985V257.382H172.97ZM204.013 279.384C201.993 279.384 200.254 278.974 198.797 278.156C197.348 277.33 196.232 276.162 195.447 274.653C194.663 273.136 194.271 271.342 194.271 269.271C194.271 267.251 194.663 265.479 195.447 263.953C196.232 262.428 197.335 261.239 198.759 260.386C200.19 259.534 201.869 259.108 203.795 259.108C205.091 259.108 206.297 259.317 207.413 259.734C208.538 260.143 209.518 260.761 210.354 261.588C211.197 262.415 211.854 263.455 212.322 264.707C212.791 265.952 213.026 267.409 213.026 269.08V270.575H196.445V267.2H207.899C207.899 266.416 207.729 265.722 207.388 265.116C207.047 264.511 206.574 264.038 205.969 263.697C205.372 263.348 204.678 263.173 203.885 263.173C203.058 263.173 202.325 263.365 201.686 263.749C201.055 264.124 200.561 264.631 200.203 265.27C199.845 265.901 199.662 266.604 199.653 267.379V270.588C199.653 271.56 199.832 272.399 200.19 273.107C200.557 273.814 201.072 274.359 201.737 274.743C202.402 275.126 203.19 275.318 204.102 275.318C204.707 275.318 205.261 275.233 205.764 275.062C206.267 274.892 206.697 274.636 207.055 274.295C207.413 273.955 207.686 273.537 207.874 273.043L212.911 273.375C212.655 274.585 212.131 275.642 211.338 276.545C210.554 277.44 209.54 278.139 208.295 278.642C207.06 279.136 205.632 279.384 204.013 279.384ZM222.179 279.371C220.926 279.371 219.81 279.153 218.83 278.719C217.849 278.276 217.074 277.624 216.503 276.763C215.94 275.893 215.659 274.811 215.659 273.516C215.659 272.425 215.859 271.509 216.26 270.767C216.661 270.026 217.206 269.429 217.896 268.977C218.587 268.526 219.371 268.185 220.249 267.955C221.135 267.724 222.064 267.562 223.036 267.469C224.178 267.349 225.098 267.239 225.797 267.136C226.496 267.026 227.003 266.864 227.318 266.651C227.634 266.437 227.791 266.122 227.791 265.705V265.628C227.791 264.818 227.536 264.192 227.024 263.749C226.521 263.305 225.805 263.084 224.876 263.084C223.896 263.084 223.116 263.301 222.537 263.736C221.957 264.162 221.574 264.699 221.386 265.347L216.349 264.938C216.605 263.744 217.108 262.713 217.858 261.844C218.608 260.966 219.575 260.293 220.76 259.824C221.953 259.347 223.334 259.108 224.902 259.108C225.993 259.108 227.037 259.236 228.034 259.491C229.04 259.747 229.93 260.143 230.706 260.68C231.49 261.217 232.108 261.908 232.56 262.751C233.011 263.587 233.237 264.588 233.237 265.756V279H228.072V276.277H227.919C227.604 276.891 227.182 277.432 226.653 277.901C226.125 278.361 225.49 278.723 224.749 278.987C224.007 279.243 223.151 279.371 222.179 279.371ZM223.739 275.612C224.54 275.612 225.247 275.455 225.861 275.139C226.474 274.815 226.956 274.381 227.305 273.835C227.655 273.29 227.83 272.672 227.83 271.982V269.898C227.659 270.009 227.425 270.111 227.126 270.205C226.837 270.29 226.509 270.371 226.142 270.447C225.776 270.516 225.409 270.58 225.043 270.639C224.676 270.69 224.344 270.737 224.045 270.78C223.406 270.874 222.848 271.023 222.371 271.227C221.893 271.432 221.523 271.709 221.259 272.058C220.994 272.399 220.862 272.825 220.862 273.337C220.862 274.078 221.131 274.645 221.668 275.037C222.213 275.42 222.903 275.612 223.739 275.612ZM237.462 279V259.364H242.653V262.828H242.883C243.292 261.678 243.974 260.77 244.928 260.105C245.883 259.44 247.025 259.108 248.354 259.108C249.701 259.108 250.847 259.445 251.793 260.118C252.739 260.783 253.37 261.686 253.685 262.828H253.89C254.29 261.703 255.015 260.804 256.063 260.131C257.12 259.449 258.369 259.108 259.809 259.108C261.641 259.108 263.129 259.692 264.271 260.859C265.421 262.018 265.996 263.663 265.996 265.794V279H260.563V266.868C260.563 265.777 260.273 264.959 259.694 264.413C259.114 263.868 258.39 263.595 257.521 263.595C256.532 263.595 255.761 263.911 255.207 264.541C254.653 265.163 254.376 265.986 254.376 267.009V279H249.096V266.753C249.096 265.79 248.819 265.023 248.265 264.452C247.719 263.881 246.999 263.595 246.104 263.595C245.499 263.595 244.954 263.749 244.468 264.055C243.991 264.354 243.612 264.776 243.33 265.321C243.049 265.858 242.908 266.489 242.908 267.213V279H237.462Z" fill="white"/>
<path d="M338.426 375V348.818H348.909C350.835 348.818 352.442 349.104 353.729 349.675C355.015 350.246 355.983 351.038 356.631 352.053C357.278 353.058 357.602 354.217 357.602 355.53C357.602 356.553 357.398 357.452 356.988 358.227C356.579 358.994 356.017 359.625 355.301 360.119C354.594 360.605 353.784 360.95 352.872 361.155V361.411C353.869 361.453 354.802 361.734 355.672 362.254C356.55 362.774 357.261 363.503 357.807 364.44C358.352 365.369 358.625 366.477 358.625 367.764C358.625 369.153 358.28 370.393 357.589 371.484C356.907 372.567 355.898 373.423 354.559 374.054C353.221 374.685 351.572 375 349.612 375H338.426ZM343.961 370.474H348.474C350.017 370.474 351.142 370.18 351.849 369.592C352.557 368.996 352.91 368.203 352.91 367.214C352.91 366.49 352.736 365.851 352.386 365.297C352.037 364.743 351.538 364.308 350.89 363.993C350.251 363.678 349.488 363.52 348.602 363.52H343.961V370.474ZM343.961 359.774H348.065C348.824 359.774 349.497 359.642 350.085 359.378C350.682 359.105 351.15 358.722 351.491 358.227C351.841 357.733 352.015 357.141 352.015 356.45C352.015 355.504 351.679 354.741 351.006 354.162C350.341 353.582 349.395 353.293 348.167 353.293H343.961V359.774ZM374.717 366.639V355.364H380.163V375H374.934V371.433H374.73C374.286 372.584 373.549 373.509 372.518 374.207C371.495 374.906 370.247 375.256 368.772 375.256C367.46 375.256 366.305 374.957 365.308 374.361C364.311 373.764 363.531 372.916 362.968 371.817C362.414 370.717 362.133 369.401 362.124 367.866V355.364H367.57V366.895C367.579 368.054 367.89 368.97 368.504 369.643C369.117 370.317 369.94 370.653 370.971 370.653C371.627 370.653 372.241 370.504 372.812 370.206C373.383 369.899 373.843 369.447 374.193 368.851C374.551 368.254 374.725 367.517 374.717 366.639ZM384.519 375V355.364H389.965V375H384.519ZM387.255 352.832C386.445 352.832 385.751 352.564 385.171 352.027C384.6 351.482 384.314 350.83 384.314 350.071C384.314 349.321 384.6 348.678 385.171 348.141C385.751 347.595 386.445 347.322 387.255 347.322C388.064 347.322 388.755 347.595 389.326 348.141C389.905 348.678 390.195 349.321 390.195 350.071C390.195 350.83 389.905 351.482 389.326 352.027C388.755 352.564 388.064 352.832 387.255 352.832ZM399.774 348.818V375H394.328V348.818H399.774ZM411.372 375.32C409.881 375.32 408.53 374.936 407.319 374.169C406.118 373.393 405.163 372.256 404.456 370.756C403.757 369.247 403.407 367.398 403.407 365.207C403.407 362.957 403.77 361.087 404.494 359.595C405.219 358.095 406.182 356.974 407.383 356.233C408.594 355.483 409.919 355.108 411.359 355.108C412.459 355.108 413.375 355.295 414.108 355.67C414.849 356.037 415.446 356.497 415.898 357.051C416.358 357.597 416.707 358.134 416.946 358.662H417.112V348.818H422.545V375H417.176V371.855H416.946C416.69 372.401 416.328 372.942 415.859 373.479C415.399 374.007 414.798 374.446 414.057 374.795C413.324 375.145 412.429 375.32 411.372 375.32ZM413.098 370.986C413.976 370.986 414.717 370.747 415.322 370.27C415.936 369.784 416.405 369.107 416.729 368.237C417.061 367.368 417.227 366.349 417.227 365.182C417.227 364.014 417.065 363 416.741 362.139C416.417 361.278 415.949 360.614 415.335 360.145C414.721 359.676 413.976 359.442 413.098 359.442C412.203 359.442 411.449 359.685 410.835 360.17C410.221 360.656 409.757 361.33 409.442 362.19C409.126 363.051 408.969 364.048 408.969 365.182C408.969 366.324 409.126 367.334 409.442 368.212C409.765 369.081 410.23 369.763 410.835 370.257C411.449 370.743 412.203 370.986 413.098 370.986Z" fill="white"/>
<path d="M295.899 534.348C295.796 533.317 295.357 532.516 294.582 531.945C293.806 531.374 292.754 531.088 291.424 531.088C290.521 531.088 289.758 531.216 289.136 531.472C288.514 531.719 288.036 532.064 287.704 532.507C287.38 532.95 287.218 533.453 287.218 534.016C287.201 534.484 287.299 534.893 287.512 535.243C287.734 535.592 288.036 535.895 288.42 536.151C288.803 536.398 289.247 536.615 289.749 536.803C290.252 536.982 290.789 537.135 291.36 537.263L293.713 537.825C294.855 538.081 295.903 538.422 296.857 538.848C297.812 539.274 298.639 539.798 299.338 540.42C300.036 541.043 300.578 541.776 300.961 542.619C301.353 543.463 301.553 544.43 301.562 545.521C301.553 547.124 301.144 548.513 300.335 549.689C299.534 550.857 298.374 551.764 296.857 552.412C295.349 553.051 293.529 553.371 291.399 553.371C289.285 553.371 287.444 553.047 285.876 552.399C284.316 551.751 283.097 550.793 282.22 549.523C281.35 548.244 280.894 546.663 280.852 544.78H286.208C286.268 545.658 286.519 546.391 286.963 546.979C287.414 547.558 288.015 547.997 288.765 548.295C289.524 548.585 290.38 548.73 291.335 548.73C292.272 548.73 293.086 548.594 293.776 548.321C294.475 548.048 295.017 547.669 295.4 547.183C295.784 546.697 295.975 546.139 295.975 545.509C295.975 544.92 295.801 544.426 295.451 544.026C295.11 543.625 294.607 543.284 293.943 543.003C293.286 542.722 292.481 542.466 291.526 542.236L288.676 541.52C286.468 540.983 284.725 540.143 283.447 539.001C282.169 537.859 281.534 536.321 281.542 534.386C281.534 532.801 281.955 531.416 282.808 530.232C283.669 529.047 284.849 528.122 286.349 527.457C287.849 526.793 289.553 526.46 291.463 526.46C293.406 526.46 295.102 526.793 296.551 527.457C298.008 528.122 299.142 529.047 299.951 530.232C300.761 531.416 301.178 532.788 301.204 534.348H295.899ZM317.775 544.639V533.364H323.221V553H317.993V549.433H317.788C317.345 550.584 316.608 551.509 315.577 552.207C314.554 552.906 313.305 553.256 311.831 553.256C310.518 553.256 309.363 552.957 308.366 552.361C307.369 551.764 306.589 550.916 306.027 549.817C305.473 548.717 305.192 547.401 305.183 545.866V533.364H310.629V544.895C310.638 546.054 310.949 546.97 311.562 547.643C312.176 548.317 312.998 548.653 314.03 548.653C314.686 548.653 315.3 548.504 315.871 548.206C316.442 547.899 316.902 547.447 317.251 546.851C317.609 546.254 317.784 545.517 317.775 544.639ZM336.45 553.384C334.438 553.384 332.708 552.957 331.259 552.105C329.819 551.244 328.711 550.051 327.936 548.526C327.169 547 326.785 545.244 326.785 543.259C326.785 541.247 327.173 539.483 327.948 537.966C328.732 536.44 329.845 535.251 331.285 534.399C332.725 533.538 334.438 533.108 336.424 533.108C338.137 533.108 339.637 533.419 340.924 534.041C342.211 534.663 343.23 535.537 343.98 536.662C344.73 537.787 345.143 539.108 345.22 540.625H340.08C339.936 539.645 339.552 538.857 338.93 538.26C338.316 537.655 337.511 537.352 336.514 537.352C335.67 537.352 334.933 537.582 334.302 538.043C333.68 538.494 333.194 539.155 332.845 540.024C332.495 540.893 332.32 541.946 332.32 543.182C332.32 544.435 332.491 545.5 332.832 546.378C333.181 547.256 333.671 547.925 334.302 548.385C334.933 548.845 335.67 549.075 336.514 549.075C337.136 549.075 337.694 548.947 338.188 548.692C338.691 548.436 339.105 548.065 339.428 547.58C339.761 547.085 339.978 546.493 340.08 545.803H345.22C345.134 547.303 344.725 548.624 343.992 549.766C343.268 550.899 342.267 551.786 340.988 552.425C339.71 553.064 338.197 553.384 336.45 553.384ZM357.579 553.384C355.567 553.384 353.837 552.957 352.388 552.105C350.948 551.244 349.84 550.051 349.064 548.526C348.297 547 347.914 545.244 347.914 543.259C347.914 541.247 348.302 539.483 349.077 537.966C349.861 536.44 350.974 535.251 352.414 534.399C353.854 533.538 355.567 533.108 357.553 533.108C359.266 533.108 360.766 533.419 362.053 534.041C363.34 534.663 364.358 535.537 365.108 536.662C365.858 537.787 366.272 539.108 366.349 540.625H361.209C361.064 539.645 360.681 538.857 360.059 538.26C359.445 537.655 358.64 537.352 357.643 537.352C356.799 537.352 356.062 537.582 355.431 538.043C354.809 538.494 354.323 539.155 353.974 540.024C353.624 540.893 353.449 541.946 353.449 543.182C353.449 544.435 353.62 545.5 353.961 546.378C354.31 547.256 354.8 547.925 355.431 548.385C356.062 548.845 356.799 549.075 357.643 549.075C358.265 549.075 358.823 548.947 359.317 548.692C359.82 548.436 360.233 548.065 360.557 547.58C360.89 547.085 361.107 546.493 361.209 545.803H366.349C366.263 547.303 365.854 548.624 365.121 549.766C364.397 550.899 363.395 551.786 362.117 552.425C360.839 553.064 359.326 553.384 357.579 553.384ZM378.784 553.384C376.764 553.384 375.026 552.974 373.568 552.156C372.119 551.33 371.003 550.162 370.219 548.653C369.435 547.136 369.043 545.342 369.043 543.271C369.043 541.251 369.435 539.479 370.219 537.953C371.003 536.428 372.107 535.239 373.53 534.386C374.962 533.534 376.641 533.108 378.567 533.108C379.862 533.108 381.068 533.317 382.185 533.734C383.31 534.143 384.29 534.761 385.125 535.588C385.969 536.415 386.625 537.455 387.094 538.707C387.563 539.952 387.797 541.409 387.797 543.08V544.575H371.216V541.2H382.671C382.671 540.416 382.5 539.722 382.159 539.116C381.818 538.511 381.345 538.038 380.74 537.697C380.144 537.348 379.449 537.173 378.656 537.173C377.83 537.173 377.097 537.365 376.458 537.749C375.827 538.124 375.333 538.631 374.975 539.27C374.617 539.901 374.433 540.604 374.425 541.379V544.588C374.425 545.56 374.604 546.399 374.962 547.107C375.328 547.814 375.844 548.359 376.509 548.743C377.173 549.126 377.962 549.318 378.874 549.318C379.479 549.318 380.033 549.233 380.536 549.062C381.039 548.892 381.469 548.636 381.827 548.295C382.185 547.955 382.458 547.537 382.645 547.043L387.682 547.375C387.426 548.585 386.902 549.642 386.11 550.545C385.325 551.44 384.311 552.139 383.067 552.642C381.831 553.136 380.404 553.384 378.784 553.384ZM400.3 553.384C398.28 553.384 396.541 552.974 395.084 552.156C393.635 551.33 392.519 550.162 391.735 548.653C390.95 547.136 390.558 545.342 390.558 543.271C390.558 541.251 390.95 539.479 391.735 537.953C392.519 536.428 393.622 535.239 395.046 534.386C396.477 533.534 398.156 533.108 400.083 533.108C401.378 533.108 402.584 533.317 403.7 533.734C404.825 534.143 405.806 534.761 406.641 535.588C407.485 536.415 408.141 537.455 408.61 538.707C409.078 539.952 409.313 541.409 409.313 543.08V544.575H392.732V541.2H404.186C404.186 540.416 404.016 539.722 403.675 539.116C403.334 538.511 402.861 538.038 402.256 537.697C401.659 537.348 400.965 537.173 400.172 537.173C399.345 537.173 398.612 537.365 397.973 537.749C397.343 538.124 396.848 538.631 396.49 539.27C396.132 539.901 395.949 540.604 395.941 541.379V544.588C395.941 545.56 396.119 546.399 396.477 547.107C396.844 547.814 397.36 548.359 398.024 548.743C398.689 549.126 399.477 549.318 400.389 549.318C400.994 549.318 401.548 549.233 402.051 549.062C402.554 548.892 402.985 548.636 403.343 548.295C403.7 547.955 403.973 547.537 404.161 547.043L409.198 547.375C408.942 548.585 408.418 549.642 407.625 550.545C406.841 551.44 405.827 552.139 404.583 552.642C403.347 553.136 401.919 553.384 400.3 553.384ZM420.102 553.32C418.611 553.32 417.26 552.936 416.05 552.169C414.848 551.393 413.894 550.256 413.186 548.756C412.487 547.247 412.138 545.398 412.138 543.207C412.138 540.957 412.5 539.087 413.225 537.595C413.949 536.095 414.912 534.974 416.114 534.233C417.324 533.483 418.649 533.108 420.09 533.108C421.189 533.108 422.105 533.295 422.838 533.67C423.58 534.037 424.176 534.497 424.628 535.051C425.088 535.597 425.438 536.134 425.676 536.662H425.843V526.818H431.276V553H425.906V549.855H425.676C425.421 550.401 425.058 550.942 424.59 551.479C424.129 552.007 423.529 552.446 422.787 552.795C422.054 553.145 421.159 553.32 420.102 553.32ZM421.828 548.986C422.706 548.986 423.448 548.747 424.053 548.27C424.666 547.784 425.135 547.107 425.459 546.237C425.791 545.368 425.958 544.349 425.958 543.182C425.958 542.014 425.796 541 425.472 540.139C425.148 539.278 424.679 538.614 424.066 538.145C423.452 537.676 422.706 537.442 421.828 537.442C420.933 537.442 420.179 537.685 419.566 538.17C418.952 538.656 418.487 539.33 418.172 540.19C417.857 541.051 417.699 542.048 417.699 543.182C417.699 544.324 417.857 545.334 418.172 546.212C418.496 547.081 418.96 547.763 419.566 548.257C420.179 548.743 420.933 548.986 421.828 548.986Z" fill="white"/>
<path d="M40.7775 467V440.818H51.1071C53.0843 440.818 54.7718 441.172 56.1696 441.879C57.5758 442.578 58.6454 443.571 59.3784 444.858C60.1199 446.136 60.4906 447.641 60.4906 449.371C60.4906 451.109 60.1156 452.605 59.3656 453.858C58.6156 455.102 57.5289 456.057 56.1056 456.722C54.6909 457.386 52.9778 457.719 50.9664 457.719H44.0502V453.27H50.0716C51.1284 453.27 52.0062 453.125 52.7051 452.835C53.4039 452.545 53.9238 452.111 54.2647 451.531C54.6142 450.952 54.7889 450.232 54.7889 449.371C54.7889 448.501 54.6142 447.768 54.2647 447.172C53.9238 446.575 53.3997 446.124 52.6923 445.817C51.9934 445.501 51.1113 445.344 50.046 445.344H46.313V467H40.7775ZM54.9167 455.085L61.4238 467H55.313L48.9466 455.085H54.9167ZM72.9327 467.384C70.9128 467.384 69.1742 466.974 67.7168 466.156C66.2679 465.33 65.1515 464.162 64.3674 462.653C63.5833 461.136 63.1912 459.342 63.1912 457.271C63.1912 455.251 63.5833 453.479 64.3674 451.953C65.1515 450.428 66.2551 449.239 67.6784 448.386C69.1103 447.534 70.7892 447.108 72.7154 447.108C74.0108 447.108 75.2168 447.317 76.3333 447.734C77.4583 448.143 78.4384 448.761 79.2736 449.588C80.1174 450.415 80.7736 451.455 81.2424 452.707C81.7111 453.952 81.9455 455.409 81.9455 457.08V458.575H65.3645V455.2H76.8191C76.8191 454.416 76.6486 453.722 76.3077 453.116C75.9668 452.511 75.4938 452.038 74.8887 451.697C74.2921 451.348 73.5975 451.173 72.8049 451.173C71.9782 451.173 71.2452 451.365 70.606 451.749C69.9753 452.124 69.481 452.631 69.123 453.27C68.7651 453.901 68.5819 454.604 68.5733 455.379V458.588C68.5733 459.56 68.7523 460.399 69.1103 461.107C69.4767 461.814 69.9924 462.359 70.6571 462.743C71.3219 463.126 72.1103 463.318 73.0222 463.318C73.6273 463.318 74.1813 463.233 74.6841 463.062C75.187 462.892 75.6174 462.636 75.9753 462.295C76.3333 461.955 76.606 461.537 76.7935 461.043L81.8304 461.375C81.5748 462.585 81.0506 463.642 80.258 464.545C79.4739 465.44 78.4597 466.139 77.2154 466.642C75.9796 467.136 74.552 467.384 72.9327 467.384ZM85.4995 474.364V447.364H90.8688V450.662H91.1117C91.3503 450.134 91.6955 449.597 92.1472 449.051C92.6074 448.497 93.204 448.037 93.937 447.67C94.6784 447.295 95.5989 447.108 96.6983 447.108C98.1301 447.108 99.4512 447.483 100.661 448.233C101.872 448.974 102.839 450.095 103.563 451.595C104.288 453.087 104.65 454.957 104.65 457.207C104.65 459.398 104.296 461.247 103.589 462.756C102.89 464.256 101.936 465.393 100.725 466.169C99.5236 466.936 98.177 467.32 96.6855 467.32C95.6287 467.32 94.7296 467.145 93.9881 466.795C93.2551 466.446 92.6543 466.007 92.1855 465.479C91.7168 464.942 91.3588 464.401 91.1117 463.855H90.9455V474.364H85.4995ZM90.8304 457.182C90.8304 458.349 90.9924 459.368 91.3162 460.237C91.6401 461.107 92.1088 461.784 92.7225 462.27C93.3361 462.747 94.0819 462.986 94.9597 462.986C95.8461 462.986 96.5961 462.743 97.2097 462.257C97.8233 461.763 98.2878 461.081 98.6032 460.212C98.927 459.334 99.089 458.324 99.089 457.182C99.089 456.048 98.9313 455.051 98.6159 454.19C98.3006 453.33 97.8361 452.656 97.2225 452.17C96.6088 451.685 95.8546 451.442 94.9597 451.442C94.0733 451.442 93.3233 451.676 92.7097 452.145C92.1046 452.614 91.6401 453.278 91.3162 454.139C90.9924 455 90.8304 456.014 90.8304 457.182ZM117.23 467.384C115.21 467.384 113.471 466.974 112.014 466.156C110.565 465.33 109.448 464.162 108.664 462.653C107.88 461.136 107.488 459.342 107.488 457.271C107.488 455.251 107.88 453.479 108.664 451.953C109.448 450.428 110.552 449.239 111.975 448.386C113.407 447.534 115.086 447.108 117.012 447.108C118.308 447.108 119.514 447.317 120.63 447.734C121.755 448.143 122.735 448.761 123.57 449.588C124.414 450.415 125.07 451.455 125.539 452.707C126.008 453.952 126.242 455.409 126.242 457.08V458.575H109.661V455.2H121.116C121.116 454.416 120.945 453.722 120.605 453.116C120.264 452.511 119.791 452.038 119.186 451.697C118.589 451.348 117.894 451.173 117.102 451.173C116.275 451.173 115.542 451.365 114.903 451.749C114.272 452.124 113.778 452.631 113.42 453.27C113.062 453.901 112.879 454.604 112.87 455.379V458.588C112.87 459.56 113.049 460.399 113.407 461.107C113.774 461.814 114.289 462.359 114.954 462.743C115.619 463.126 116.407 463.318 117.319 463.318C117.924 463.318 118.478 463.233 118.981 463.062C119.484 462.892 119.914 462.636 120.272 462.295C120.63 461.955 120.903 461.537 121.09 461.043L126.127 461.375C125.872 462.585 125.347 463.642 124.555 464.545C123.771 465.44 122.757 466.139 121.512 466.642C120.276 467.136 118.849 467.384 117.23 467.384ZM135.396 467.371C134.143 467.371 133.026 467.153 132.046 466.719C131.066 466.276 130.291 465.624 129.72 464.763C129.157 463.893 128.876 462.811 128.876 461.516C128.876 460.425 129.076 459.509 129.477 458.767C129.877 458.026 130.423 457.429 131.113 456.977C131.803 456.526 132.588 456.185 133.465 455.955C134.352 455.724 135.281 455.562 136.252 455.469C137.394 455.349 138.315 455.239 139.014 455.136C139.713 455.026 140.22 454.864 140.535 454.651C140.85 454.437 141.008 454.122 141.008 453.705V453.628C141.008 452.818 140.752 452.192 140.241 451.749C139.738 451.305 139.022 451.084 138.093 451.084C137.113 451.084 136.333 451.301 135.754 451.736C135.174 452.162 134.791 452.699 134.603 453.347L129.566 452.938C129.822 451.744 130.325 450.713 131.075 449.844C131.825 448.966 132.792 448.293 133.977 447.824C135.17 447.347 136.551 447.108 138.119 447.108C139.21 447.108 140.254 447.236 141.251 447.491C142.257 447.747 143.147 448.143 143.923 448.68C144.707 449.217 145.325 449.908 145.776 450.751C146.228 451.587 146.454 452.588 146.454 453.756V467H141.289V464.277H141.136C140.82 464.891 140.399 465.432 139.87 465.901C139.342 466.361 138.707 466.723 137.965 466.987C137.224 467.243 136.367 467.371 135.396 467.371ZM136.955 463.612C137.757 463.612 138.464 463.455 139.078 463.139C139.691 462.815 140.173 462.381 140.522 461.835C140.872 461.29 141.046 460.672 141.046 459.982V457.898C140.876 458.009 140.642 458.111 140.343 458.205C140.053 458.29 139.725 458.371 139.359 458.447C138.992 458.516 138.626 458.58 138.259 458.639C137.893 458.69 137.561 458.737 137.262 458.78C136.623 458.874 136.065 459.023 135.588 459.227C135.11 459.432 134.74 459.709 134.475 460.058C134.211 460.399 134.079 460.825 134.079 461.337C134.079 462.078 134.347 462.645 134.884 463.037C135.43 463.42 136.12 463.612 136.955 463.612ZM161.124 447.364V451.455H149.298V447.364H161.124ZM151.983 442.659H157.429V460.966C157.429 461.469 157.506 461.861 157.659 462.142C157.813 462.415 158.026 462.607 158.298 462.717C158.58 462.828 158.904 462.884 159.27 462.884C159.526 462.884 159.781 462.862 160.037 462.82C160.293 462.768 160.489 462.73 160.625 462.705L161.482 466.757C161.209 466.842 160.825 466.94 160.331 467.051C159.837 467.17 159.236 467.243 158.529 467.268C157.216 467.32 156.066 467.145 155.077 466.744C154.097 466.344 153.334 465.722 152.789 464.878C152.243 464.034 151.975 462.969 151.983 461.682V442.659Z" fill="white"/>
<path d="M273.257 96.7086C273.435 99.7335 276.266 100.059 278.146 102.014C280.262 104.215 280.996 107.992 283.556 109.609C288.008 112.421 289.304 115.935 294.791 117.307" stroke="white" stroke-width="3" stroke-linecap="round"/>
<path d="M302.282 113.562C306.911 113.834 311.954 126.67 305.819 126.67C301.931 126.67 289.994 126.439 288.237 122.925" stroke="white" stroke-width="3" stroke-linecap="round"/>
<path d="M307.899 198.764C306.666 202.876 300.591 208.076 298.016 211.821C293.656 218.162 289.087 227.138 282 229.5" stroke="white" stroke-width="3" stroke-linecap="round"/>
<path d="M277.002 216.554C277.844 215.923 277.938 227.539 277.938 230.078C277.938 236.619 286.229 234.344 291.046 234.344" stroke="white" stroke-width="3" stroke-linecap="round"/>
<path d="M289.173 298.012C300.51 301.936 309.439 309.549 320.071 314.865" stroke="white" stroke-width="3" stroke-linecap="round"/>
<path d="M326.625 302.693C329.114 307.421 329.325 311.014 329.798 316.217C330.047 318.956 317.323 320.16 315.39 320.483" stroke="white" stroke-width="3" stroke-linecap="round"/>
<path d="M366.886 429.093C371.736 425.212 370.631 438.042 370.631 439.704C370.631 447.62 368.758 455.308 368.758 463.163C368.758 465.522 368.614 466.103 367.406 468.001C365.892 470.38 367.569 473.478 365.95 475.907" stroke="white" stroke-width="3" stroke-linecap="round"/>
<path d="M344.415 462.799C351.455 466.639 350.673 474.825 353.414 481.525C354.453 484.066 357.406 490.29 360.124 491.72C365.18 494.381 372.158 489.461 374.584 485.27C376.114 482.628 379.757 481.762 381.867 479.652" stroke="white" stroke-width="3" stroke-linecap="round"/>
<path d="M118.5 490C115.719 495.561 160.5 529.5 183.5 536.5C206.5 539.5 211.587 540.5 226.5 540.5" stroke="white" stroke-width="3" stroke-linecap="round"/>
<path d="M105.66 425.347C102.703 421.281 104.602 408.86 104.724 403.605C104.931 394.717 112.359 385.578 114.295 376.868C115.057 373.437 117.723 368.319 119.653 365.425C122.005 361.896 121.964 357.208 124.178 353.461C127.297 348.183 130 340 130 334" stroke="white" stroke-width="3" stroke-linecap="round"/>
<path d="M133.749 317.674C130.105 319.817 128.58 324.605 124.854 327.089C121.621 329.244 117.861 332.625 115.023 335.463" stroke="white" stroke-width="3" stroke-linecap="round"/>
<path d="M134 318L142.176 343.89" stroke="white" stroke-width="3" stroke-linecap="round"/>
<path d="M245.186 539L245.205 538.863V538.725C245.205 535.567 246.948 531.99 250.903 528.301C254.842 524.626 260.802 521.016 268.746 517.838C284.623 511.487 308.084 507 338.116 507C368.273 507 399.074 508.952 422.282 514.097C433.902 516.673 443.461 520.017 450.068 524.211C456.664 528.398 460 533.207 460 538.725C460 545.48 455.075 554.249 439.846 561.436C424.633 568.615 399.491 574 360.096 574C320.607 574 290.759 570.98 271.283 564.905C261.539 561.866 254.586 558.12 250.298 553.777C246.091 549.517 244.403 544.648 245.186 539Z" stroke="#46E04C" stroke-width="4"/>
<path d="M115.487 262.225L115.5 262.113V262C115.5 255.241 119.687 249.059 130.393 244.456C141.161 239.825 158.151 237 182.743 237C207.369 237 232.478 238.951 251.367 244.075C260.821 246.639 268.56 249.957 273.896 254.102C279.185 258.21 282 263.023 282 268.725C282 275.693 277.868 284.424 265.59 291.512C253.269 298.626 232.841 304 200.708 304C168.523 304 146.411 299.309 132.77 291.705C125.976 287.917 121.348 283.444 118.574 278.526C115.809 273.622 114.815 268.151 115.487 262.225Z" stroke="#46E04C" stroke-width="4"/>
<path d="M318.474 358.042L318.482 357.949V357.857C318.482 350.879 322.027 344.75 330.617 340.246C339.331 335.677 353.148 332.857 373.267 332.857C393.608 332.857 414.068 332.872 429.455 337.004C437.12 339.062 443.32 342.094 447.594 346.48C451.814 350.811 454.306 356.616 454.306 364.582C454.306 371.736 450.828 380.46 440.877 387.466C430.881 394.503 414.261 399.857 388 399.857C361.675 399.857 343.679 395.178 332.611 387.654C321.685 380.227 317.367 369.942 318.474 358.042Z" stroke="#FF00D6" stroke-width="4"/>
<path d="M300.2 157.223L300.213 157.112V157C300.213 150.229 304.364 144.051 314.951 139.453C325.604 134.825 342.417 132 366.761 132C391.281 132 416.091 132.01 434.779 136.168C444.113 138.245 451.696 141.312 456.917 145.751C462.052 150.118 465 155.886 465 163.725C465 164.876 465.031 166.011 465.061 167.131C465.249 174.077 465.42 180.411 458.147 185.898C453.782 189.192 446.61 192.24 434.817 194.576C423.046 196.908 406.827 198.502 384.5 199C362.176 199.499 345.547 198.574 333.206 196.54C320.845 194.503 312.948 191.378 307.943 187.605C298.211 180.269 298.77 169.966 300.2 157.223Z" stroke="#FF00D6" stroke-width="4"/>
<path d="M132.399 69.4901L132.642 69.0427V68.5333C132.642 62.6589 135.89 57.3769 144.092 53.4434C152.399 49.4597 165.576 47 184.759 47C204.141 47 223.65 47.0126 238.323 50.6166C245.642 52.4141 251.54 55.058 255.589 58.8592C259.569 62.5948 261.896 67.5686 261.896 74.3948C261.896 80.312 258.026 87.5825 248.05 93.6173C238.083 99.6462 222.185 104.307 198.75 104.885C175.115 105.467 154.186 103.721 141.356 98.1134C134.971 95.3224 130.913 91.7157 129.287 87.2766C127.669 82.8613 128.262 77.0828 132.399 69.4901Z" stroke="white" stroke-width="4"/>
</svg>
